<?xml version="1.0" encoding="UTF-8"?>
<!--Generator: Apple Native CoreSVG 123-->
<!DOCTYPE svg
PUBLIC "-//W3C//DTD SVG 1.1//EN"
       "http://www.w3.org/Graphics/SVG/1.1/DTD/svg11.dtd">
<svg version="1.1" xmlns="http://www.w3.org/2000/svg" xmlns:xlink="http://www.w3.org/1999/xlink" width="3300" height="2200">
 <!--glyph: "uni1002A6.medium", point size: 100.000000, font version: "Version 15.0d7e11", template writer version: "5"-->
 <g id="Notes">
  <rect height="2200" id="artboard" style="fill:white;opacity:1" width="3300" x="0" y="0"/>
  <line id="" style="fill:none;stroke:black;opacity:1;stroke-width:0.5;" x1="263" x2="3036" y1="292" y2="292"/>
  <text style="stroke:none;fill:black;font-family:-apple-system,&quot;SF Pro Display&quot;,&quot;SF Pro Text&quot;,Helvetica,sans-serif;font-weight:bold;" transform="matrix(1 0 0 1 263 322)">Weight/Scale Variations</text>
  <text style="stroke:none;fill:black;font-family:-apple-system,&quot;SF Pro Display&quot;,&quot;SF Pro Text&quot;,Helvetica,sans-serif;text-anchor:middle;" transform="matrix(1 0 0 1 559.711 322)">Ultralight</text>
  <text style="stroke:none;fill:black;font-family:-apple-system,&quot;SF Pro Display&quot;,&quot;SF Pro Text&quot;,Helvetica,sans-serif;text-anchor:middle;" transform="matrix(1 0 0 1 856.422 322)">Thin</text>
  <text style="stroke:none;fill:black;font-family:-apple-system,&quot;SF Pro Display&quot;,&quot;SF Pro Text&quot;,Helvetica,sans-serif;text-anchor:middle;" transform="matrix(1 0 0 1 1153.13 322)">Light</text>
  <text style="stroke:none;fill:black;font-family:-apple-system,&quot;SF Pro Display&quot;,&quot;SF Pro Text&quot;,Helvetica,sans-serif;text-anchor:middle;" transform="matrix(1 0 0 1 1449.84 322)">Regular</text>
  <text style="stroke:none;fill:black;font-family:-apple-system,&quot;SF Pro Display&quot;,&quot;SF Pro Text&quot;,Helvetica,sans-serif;text-anchor:middle;" transform="matrix(1 0 0 1 1746.56 322)">Medium</text>
  <text style="stroke:none;fill:black;font-family:-apple-system,&quot;SF Pro Display&quot;,&quot;SF Pro Text&quot;,Helvetica,sans-serif;text-anchor:middle;" transform="matrix(1 0 0 1 2043.27 322)">Semibold</text>
  <text style="stroke:none;fill:black;font-family:-apple-system,&quot;SF Pro Display&quot;,&quot;SF Pro Text&quot;,Helvetica,sans-serif;text-anchor:middle;" transform="matrix(1 0 0 1 2339.98 322)">Bold</text>
  <text style="stroke:none;fill:black;font-family:-apple-system,&quot;SF Pro Display&quot;,&quot;SF Pro Text&quot;,Helvetica,sans-serif;text-anchor:middle;" transform="matrix(1 0 0 1 2636.69 322)">Heavy</text>
  <text style="stroke:none;fill:black;font-family:-apple-system,&quot;SF Pro Display&quot;,&quot;SF Pro Text&quot;,Helvetica,sans-serif;text-anchor:middle;" transform="matrix(1 0 0 1 2933.4 322)">Black</text>
  <line id="" style="fill:none;stroke:black;opacity:1;stroke-width:0.5;" x1="263" x2="3036" y1="1903" y2="1903"/>
  <g id="" transform="matrix(1 0 0 1 263 1933)">
   <path d="M 9.24805 0.830078 C 13.5547 0.830078 17.1387 -2.74414 17.1387 -7.05078 C 17.1387 -11.3574 13.5449 -14.9316 9.23828 -14.9316 C 4.94141 -14.9316 1.36719 -11.3574 1.36719 -7.05078 C 1.36719 -2.74414 4.95117 0.830078 9.24805 0.830078 Z M 9.24805 -0.654297 C 5.70312 -0.654297 2.87109 -3.49609 2.87109 -7.05078 C 2.87109 -10.6055 5.69336 -13.4473 9.23828 -13.4473 C 12.793 -13.4473 15.6348 -10.6055 15.6445 -7.05078 C 15.6543 -3.49609 12.8027 -0.654297 9.24805 -0.654297 Z M 9.22852 -3.42773 C 9.69727 -3.42773 9.9707 -3.74023 9.9707 -4.25781 L 9.9707 -6.31836 L 12.1973 -6.31836 C 12.6953 -6.31836 13.0371 -6.57227 13.0371 -7.04102 C 13.0371 -7.51953 12.7148 -7.7832 12.1973 -7.7832 L 9.9707 -7.7832 L 9.9707 -10.0098 C 9.9707 -10.5273 9.69727 -10.8496 9.22852 -10.8496 C 8.75977 -10.8496 8.50586 -10.5078 8.50586 -10.0098 L 8.50586 -7.7832 L 6.29883 -7.7832 C 5.78125 -7.7832 5.44922 -7.51953 5.44922 -7.04102 C 5.44922 -6.57227 5.80078 -6.31836 6.29883 -6.31836 L 8.50586 -6.31836 L 8.50586 -4.25781 C 8.50586 -3.75977 8.75977 -3.42773 9.22852 -3.42773 Z"/>
  </g>
  <g id="" transform="matrix(1 0 0 1 281.506 1933)">
   <path d="M 11.709 2.91016 C 17.1582 2.91016 21.6699 -1.60156 21.6699 -7.05078 C 21.6699 -12.4902 17.1484 -17.0117 11.6992 -17.0117 C 6.25977 -17.0117 1.74805 -12.4902 1.74805 -7.05078 C 1.74805 -1.60156 6.26953 2.91016 11.709 2.91016 Z M 11.709 1.25 C 7.09961 1.25 3.41797 -2.44141 3.41797 -7.05078 C 3.41797 -11.6504 7.08984 -15.3516 11.6992 -15.3516 C 16.3086 -15.3516 20 -11.6504 20.0098 -7.05078 C 20.0195 -2.44141 16.3184 1.25 11.709 1.25 Z M 11.6895 -2.41211 C 12.207 -2.41211 12.5195 -2.77344 12.5195 -3.33984 L 12.5195 -6.23047 L 15.5762 -6.23047 C 16.123 -6.23047 16.5039 -6.51367 16.5039 -7.03125 C 16.5039 -7.55859 16.1426 -7.86133 15.5762 -7.86133 L 12.5195 -7.86133 L 12.5195 -10.9277 C 12.5195 -11.5039 12.207 -11.8555 11.6895 -11.8555 C 11.1719 -11.8555 10.8789 -11.4844 10.8789 -10.9277 L 10.8789 -7.86133 L 7.83203 -7.86133 C 7.26562 -7.86133 6.89453 -7.55859 6.89453 -7.03125 C 6.89453 -6.51367 7.28516 -6.23047 7.83203 -6.23047 L 10.8789 -6.23047 L 10.8789 -3.33984 C 10.8789 -2.79297 11.1719 -2.41211 11.6895 -2.41211 Z"/>
  </g>
  <g id="" transform="matrix(1 0 0 1 304.924 1933)">
   <path d="M 14.9707 5.67383 C 21.9336 5.67383 27.6953 -0.078125 27.6953 -7.04102 C 27.6953 -14.0039 21.9238 -19.7559 14.9609 -19.7559 C 8.00781 -19.7559 2.25586 -14.0039 2.25586 -7.04102 C 2.25586 -0.078125 8.01758 5.67383 14.9707 5.67383 Z M 14.9707 3.85742 C 8.93555 3.85742 4.08203 -1.00586 4.08203 -7.04102 C 4.08203 -13.0762 8.92578 -17.9395 14.9609 -17.9395 C 21.0059 -17.9395 25.8594 -13.0762 25.8691 -7.04102 C 25.8789 -1.00586 21.0156 3.85742 14.9707 3.85742 Z M 14.9512 -1.06445 C 15.5176 -1.06445 15.8691 -1.45508 15.8691 -2.06055 L 15.8691 -6.13281 L 20.1074 -6.13281 C 20.6934 -6.13281 21.1133 -6.46484 21.1133 -7.02148 C 21.1133 -7.59766 20.7227 -7.93945 20.1074 -7.93945 L 15.8691 -7.93945 L 15.8691 -12.1875 C 15.8691 -12.8027 15.5176 -13.1934 14.9512 -13.1934 C 14.3848 -13.1934 14.0625 -12.7832 14.0625 -12.1875 L 14.0625 -7.93945 L 9.83398 -7.93945 C 9.21875 -7.93945 8.80859 -7.59766 8.80859 -7.02148 C 8.80859 -6.46484 9.23828 -6.13281 9.83398 -6.13281 L 14.0625 -6.13281 L 14.0625 -2.06055 C 14.0625 -1.47461 14.3848 -1.06445 14.9512 -1.06445 Z"/>
  </g>
  <text style="stroke:none;fill:black;font-family:-apple-system,&quot;SF Pro Display&quot;,&quot;SF Pro Text&quot;,Helvetica,sans-serif;font-weight:bold;" transform="matrix(1 0 0 1 263 1953)">Design Variations</text>
  <text style="stroke:none;fill:black;font-family:-apple-system,&quot;SF Pro Display&quot;,&quot;SF Pro Text&quot;,Helvetica,sans-serif;" transform="matrix(1 0 0 1 263 1971)">Symbols are supported in up to nine weights and three scales.</text>
  <text style="stroke:none;fill:black;font-family:-apple-system,&quot;SF Pro Display&quot;,&quot;SF Pro Text&quot;,Helvetica,sans-serif;" transform="matrix(1 0 0 1 263 1989)">For optimal layout with text and other symbols, vertically align</text>
  <text style="stroke:none;fill:black;font-family:-apple-system,&quot;SF Pro Display&quot;,&quot;SF Pro Text&quot;,Helvetica,sans-serif;" transform="matrix(1 0 0 1 263 2007)">symbols with the adjacent text.</text>
  <rect height="14" id="" style="fill:#00AEEF;stroke:none;opacity:0.4;" width="3" x="776" y="1919"/>
  <g id="" transform="matrix(1 0 0 1 779 1933)">
   <path d="M 10.5273 0 L 12.373 0 L 7.17773 -14.0918 L 5.43945 -14.0918 L 0.244141 0 L 2.08984 0 L 3.50586 -4.0332 L 9.11133 -4.0332 Z M 6.2793 -11.9531 L 6.33789 -11.9531 L 8.59375 -5.52734 L 4.02344 -5.52734 Z"/>
  </g>
  <rect height="14" id="" style="fill:#00AEEF;stroke:none;opacity:0.4;" width="3" x="791.617" y="1919"/>
  <text style="stroke:none;fill:black;font-family:-apple-system,&quot;SF Pro Display&quot;,&quot;SF Pro Text&quot;,Helvetica,sans-serif;font-weight:bold;" transform="matrix(1 0 0 1 776 1953)">Margins</text>
  <text style="stroke:none;fill:black;font-family:-apple-system,&quot;SF Pro Display&quot;,&quot;SF Pro Text&quot;,Helvetica,sans-serif;" transform="matrix(1 0 0 1 776 1971)">Leading and trailing margins on the left and right side of each symbol</text>
  <text style="stroke:none;fill:black;font-family:-apple-system,&quot;SF Pro Display&quot;,&quot;SF Pro Text&quot;,Helvetica,sans-serif;" transform="matrix(1 0 0 1 776 1989)">can be adjusted by modifying the width of the blue rectangles.</text>
  <text style="stroke:none;fill:black;font-family:-apple-system,&quot;SF Pro Display&quot;,&quot;SF Pro Text&quot;,Helvetica,sans-serif;" transform="matrix(1 0 0 1 776 2007)">Modifications are automatically applied proportionally to all</text>
  <text style="stroke:none;fill:black;font-family:-apple-system,&quot;SF Pro Display&quot;,&quot;SF Pro Text&quot;,Helvetica,sans-serif;" transform="matrix(1 0 0 1 776 2025)">scales and weights.</text>
  <g id="" transform="matrix(1 0 0 1 1289 1933)">
   <path d="M 2.83203 3.11523 L 4.375 4.6582 C 5.22461 5.48828 6.19141 5.41992 7.06055 4.46289 L 17.2754 -6.66016 C 17.7051 -6.36719 18.0957 -6.37695 18.5645 -6.47461 L 19.6094 -6.68945 L 20.3027 -5.99609 L 20.2539 -5.47852 C 20.1855 -4.95117 20.3516 -4.53125 20.8496 -4.0332 L 21.6602 -3.22266 C 22.168 -2.71484 22.8223 -2.68555 23.3008 -3.16406 L 26.5527 -6.41602 C 27.0312 -6.89453 27.0117 -7.54883 26.5039 -8.05664 L 25.6836 -8.87695 C 25.1855 -9.375 24.7754 -9.55078 24.2383 -9.47266 L 23.7109 -9.41406 L 23.0566 -10.0781 L 23.3398 -11.2207 C 23.4863 -11.7871 23.3398 -12.2559 22.7148 -12.8613 L 20.3027 -15.2539 C 16.7578 -18.7793 12.2266 -18.6719 9.11133 -15.5371 C 8.69141 -15.1074 8.64258 -14.5215 8.91602 -14.0918 C 9.15039 -13.7207 9.62891 -13.4961 10.2734 -13.6621 C 11.7871 -14.043 13.3008 -13.9258 14.7852 -12.9199 L 14.1602 -11.3379 C 13.9258 -10.752 13.9453 -10.2734 14.1797 -9.83398 L 3.01758 0.439453 C 2.08008 1.30859 1.97266 2.25586 2.83203 3.11523 Z M 10.6738 -15.1465 C 13.3398 -17.1387 16.6504 -16.8262 19.0527 -14.4141 L 21.6797 -11.8066 C 21.9141 -11.5723 21.9434 -11.3867 21.8848 -11.0938 L 21.5039 -9.53125 L 23.0762 -7.95898 L 24.043 -8.04688 C 24.3262 -8.07617 24.4141 -8.05664 24.6387 -7.83203 L 25.2637 -7.20703 L 22.5098 -4.46289 L 21.8848 -5.07812 C 21.6602 -5.30273 21.6406 -5.40039 21.6699 -5.68359 L 21.7578 -6.64062 L 20.1953 -8.20312 L 18.5742 -7.89062 C 18.291 -7.83203 18.1445 -7.83203 17.9102 -8.07617 L 15.7324 -10.2539 C 15.5078 -10.4883 15.4785 -10.625 15.6055 -10.9473 L 16.5527 -13.2227 C 14.9512 -14.7559 12.8418 -15.6055 10.8008 -14.9512 C 10.7129 -14.9219 10.6445 -14.9414 10.6152 -14.9805 C 10.5859 -15.0293 10.5859 -15.0781 10.6738 -15.1465 Z M 4.10156 2.41211 C 3.61328 1.91406 3.78906 1.61133 4.12109 1.30859 L 15.0781 -8.80859 L 16.3086 -7.57812 L 6.15234 3.34961 C 5.84961 3.68164 5.46875 3.7793 5.06836 3.37891 Z"/>
  </g>
  <text style="stroke:none;fill:black;font-family:-apple-system,&quot;SF Pro Display&quot;,&quot;SF Pro Text&quot;,Helvetica,sans-serif;font-weight:bold;" transform="matrix(1 0 0 1 1289 1953)">Exporting</text>
  <text style="stroke:none;fill:black;font-family:-apple-system,&quot;SF Pro Display&quot;,&quot;SF Pro Text&quot;,Helvetica,sans-serif;" transform="matrix(1 0 0 1 1289 1971)">Symbols should be outlined when exporting to ensure the</text>
  <text style="stroke:none;fill:black;font-family:-apple-system,&quot;SF Pro Display&quot;,&quot;SF Pro Text&quot;,Helvetica,sans-serif;" transform="matrix(1 0 0 1 1289 1989)">design is preserved when submitting to Xcode.</text>
  <text id="template-version" style="stroke:none;fill:black;font-family:-apple-system,&quot;SF Pro Display&quot;,&quot;SF Pro Text&quot;,Helvetica,sans-serif;text-anchor:end;" transform="matrix(1 0 0 1 3036 1933)">Template v.1.0</text>
  <text style="stroke:none;fill:black;font-family:-apple-system,&quot;SF Pro Display&quot;,&quot;SF Pro Text&quot;,Helvetica,sans-serif;text-anchor:end;" transform="matrix(1 0 0 1 3036 1951)">Generated from speaker.2</text>
  <text style="stroke:none;fill:black;font-family:-apple-system,&quot;SF Pro Display&quot;,&quot;SF Pro Text&quot;,Helvetica,sans-serif;text-anchor:end;" transform="matrix(1 0 0 1 3036 1969)">Typeset at 100 points</text>
  <text style="stroke:none;fill:black;font-family:-apple-system,&quot;SF Pro Display&quot;,&quot;SF Pro Text&quot;,Helvetica,sans-serif;" transform="matrix(1 0 0 1 263 726)">Small</text>
  <text style="stroke:none;fill:black;font-family:-apple-system,&quot;SF Pro Display&quot;,&quot;SF Pro Text&quot;,Helvetica,sans-serif;" transform="matrix(1 0 0 1 263 1156)">Medium</text>
  <text style="stroke:none;fill:black;font-family:-apple-system,&quot;SF Pro Display&quot;,&quot;SF Pro Text&quot;,Helvetica,sans-serif;" transform="matrix(1 0 0 1 263 1586)">Large</text>
 </g>
 <g id="Guides">
  <g id="H-reference" style="fill:#27AAE1;stroke:none;" transform="matrix(1 0 0 1 339 696)">
   <path d="M 54.9316 0 L 57.666 0 L 30.5664 -70.459 L 28.0762 -70.459 L 0.976562 0 L 3.66211 0 L 12.9395 -24.4629 L 45.7031 -24.4629 Z M 29.1992 -67.0898 L 29.4434 -67.0898 L 44.8242 -26.709 L 13.8184 -26.709 Z"/>
  </g>
  <line id="Baseline-S" style="fill:none;stroke:#27AAE1;opacity:1;stroke-width:0.577;" x1="263" x2="3036" y1="696" y2="696"/>
  <line id="Capline-S" style="fill:none;stroke:#27AAE1;opacity:1;stroke-width:0.577;" x1="263" x2="3036" y1="625.541" y2="625.541"/>
  <g id="H-reference" style="fill:#27AAE1;stroke:none;" transform="matrix(1 0 0 1 339 1126)">
   <path d="M 54.9316 0 L 57.666 0 L 30.5664 -70.459 L 28.0762 -70.459 L 0.976562 0 L 3.66211 0 L 12.9395 -24.4629 L 45.7031 -24.4629 Z M 29.1992 -67.0898 L 29.4434 -67.0898 L 44.8242 -26.709 L 13.8184 -26.709 Z"/>
  </g>
  <line id="Baseline-M" style="fill:none;stroke:#27AAE1;opacity:1;stroke-width:0.577;" x1="263" x2="3036" y1="1126" y2="1126"/>
  <line id="Capline-M" style="fill:none;stroke:#27AAE1;opacity:1;stroke-width:0.577;" x1="263" x2="3036" y1="1055.54" y2="1055.54"/>
  <g id="H-reference" style="fill:#27AAE1;stroke:none;" transform="matrix(1 0 0 1 339 1556)">
   <path d="M 54.9316 0 L 57.666 0 L 30.5664 -70.459 L 28.0762 -70.459 L 0.976562 0 L 3.66211 0 L 12.9395 -24.4629 L 45.7031 -24.4629 Z M 29.1992 -67.0898 L 29.4434 -67.0898 L 44.8242 -26.709 L 13.8184 -26.709 Z"/>
  </g>
  <line id="Baseline-L" style="fill:none;stroke:#27AAE1;opacity:1;stroke-width:0.577;" x1="263" x2="3036" y1="1556" y2="1556"/>
  <line id="Capline-L" style="fill:none;stroke:#27AAE1;opacity:1;stroke-width:0.577;" x1="263" x2="3036" y1="1485.54" y2="1485.54"/>
  <rect height="119.336" id="left-margin" style="fill:#00AEEF;stroke:none;opacity:0.4;" width="8.88672" x="1382.41" y="1030.79"/>
  <rect height="119.336" id="right-margin" style="fill:#00AEEF;stroke:none;opacity:0.4;" width="8.69141" x="1508.58" y="1030.79"/>
 </g>
 <g id="Symbols">
  <g id="Black-L" transform="matrix(1 0 0 1 2834.21 1556)">
   <path d="M 32.666 -2.97852 L 50.4883 -2.97852 C 50.8301 -2.97852 51.1719 -2.92969 51.4648 -2.58789 L 77.5879 20.7031 C 81.9336 24.6094 85.3027 26.416 89.8438 26.416 C 96.7285 26.416 102.051 21.1426 102.051 14.209 L 102.051 -84.4727 C 102.051 -91.3574 96.7285 -96.7773 89.7949 -96.7773 C 85.498 -96.7773 82.1777 -95.0684 77.5879 -90.918 L 51.4648 -67.8223 C 51.0742 -67.5293 50.8301 -67.4316 50.4883 -67.4316 L 32.666 -67.4316 C 20.5078 -67.4316 13.8672 -60.5469 13.8672 -47.8516 L 13.8672 -22.5586 C 13.8672 -9.81445 20.5078 -2.97852 32.666 -2.97852 Z M 159.424 16.6992 C 164.258 19.4824 170.068 18.2617 173.096 13.5742 C 182.08 -0.341797 187.158 -17.334 187.158 -35.2539 C 187.158 -53.2227 182.129 -70.2148 173.096 -84.082 C 170.068 -88.8184 164.258 -89.9902 159.424 -87.2559 C 153.955 -84.1797 153.369 -77.6855 156.982 -71.6797 C 163.33 -61.3281 166.895 -48.584 166.895 -35.2539 C 166.895 -21.9727 163.281 -9.22852 156.982 1.17188 C 153.418 7.12891 153.955 13.623 159.424 16.6992 Z M 126.709 -2.19727 C 131.396 0.634766 137.061 -0.439453 139.941 -4.49219 C 146.045 -12.9883 149.463 -23.8281 149.463 -35.2539 C 149.463 -46.7285 146.045 -57.5195 139.941 -66.0645 C 137.061 -70.0684 131.396 -71.1426 126.709 -68.3594 C 121.68 -65.2832 120.508 -59.3262 124.658 -52.2461 C 127.588 -47.4609 129.248 -41.4551 129.248 -35.2539 C 129.248 -29.1016 127.588 -23.0957 124.658 -18.2617 C 120.557 -11.1816 121.68 -5.27344 126.709 -2.19727 Z M 35.9863 -21.582 C 34.7168 -21.582 33.8867 -22.4121 33.8867 -23.6816 L 33.8867 -46.7285 C 33.8867 -47.9492 34.7168 -48.7793 35.9863 -48.7793 L 54.8828 -48.7793 C 56.8848 -48.7793 58.252 -49.2188 59.8145 -50.6348 L 80.1758 -69.2871 C 80.4199 -69.5312 80.7617 -69.6289 81.0547 -69.6289 C 81.5918 -69.6289 82.0312 -69.2383 82.0312 -68.6035 L 82.0312 -1.75781 C 82.0312 -1.07422 81.5918 -0.634766 81.0547 -0.634766 C 80.7617 -0.634766 80.4199 -0.78125 80.1758 -1.02539 L 59.8145 -19.7266 C 58.252 -21.1426 56.8848 -21.582 54.8828 -21.582 Z"/>
  </g>
  <g id="Heavy-L" transform="matrix(1 0 0 1 2540.6 1556)">
   <path d="M 30.3223 -4.49219 L 48.4863 -4.49219 C 48.9258 -4.49219 49.3164 -4.39453 49.6582 -4.05273 L 76.709 20.0684 C 80.6641 23.6328 83.7891 25.293 87.8906 25.293 C 94.0918 25.293 98.7793 20.6055 98.7793 14.4531 L 98.7793 -84.668 C 98.7793 -90.8203 94.0918 -95.7031 87.8418 -95.7031 C 83.8867 -95.7031 80.9082 -94.0918 76.709 -90.2832 L 49.6582 -66.3086 C 49.2676 -65.9668 48.9258 -65.8203 48.4863 -65.8203 L 30.3223 -65.8203 C 19.0918 -65.8203 13.1348 -59.6191 13.1348 -47.8516 L 13.1348 -22.4609 C 13.1348 -10.6934 19.0918 -4.49219 30.3223 -4.49219 Z M 155.176 14.8926 C 159.375 17.334 164.453 16.2598 167.09 12.1582 C 175.977 -1.17188 180.957 -17.7246 180.957 -35.2539 C 180.957 -52.832 176.025 -69.4336 167.09 -82.7148 C 164.404 -86.8164 159.375 -87.8418 155.176 -85.4004 C 150.537 -82.7148 150.049 -77.1484 153.174 -72.0215 C 159.619 -61.6699 163.428 -48.8281 163.428 -35.2539 C 163.428 -21.7285 159.668 -8.83789 153.125 1.51367 C 150.049 6.5918 150.537 12.207 155.176 14.8926 Z M 32.959 -20.6543 C 31.3477 -20.6543 30.4688 -21.582 30.4688 -23.1445 L 30.4688 -47.168 C 30.4688 -48.7793 31.3477 -49.6582 32.959 -49.6582 L 52.3438 -49.6582 C 54.2969 -49.6582 55.6152 -50.0977 57.1777 -51.5137 L 79.541 -71.9238 C 79.7852 -72.168 80.127 -72.3145 80.4688 -72.3145 C 81.0547 -72.3145 81.4453 -71.9238 81.4453 -71.2891 L 81.4453 0.927734 C 81.4453 1.5625 81.0547 2.00195 80.5176 2.00195 C 80.1758 2.00195 79.834 1.85547 79.541 1.5625 L 57.1777 -18.8477 C 55.6641 -20.2148 54.2969 -20.6543 52.3438 -20.6543 Z M 124.316 -3.56445 C 128.32 -1.12305 133.252 -2.05078 135.84 -5.61523 C 141.65 -13.623 145.02 -24.1699 145.02 -35.2539 C 145.02 -46.3867 141.65 -56.8848 135.84 -64.9414 C 133.252 -68.5059 128.32 -69.4336 124.316 -66.9922 C 119.971 -64.2578 118.945 -59.082 122.559 -53.125 C 125.684 -48.2422 127.49 -41.8457 127.49 -35.2539 C 127.49 -28.6621 125.635 -22.2656 122.51 -17.3828 C 118.994 -11.4258 119.971 -6.29883 124.316 -3.56445 Z"/>
  </g>
  <g id="Bold-L" transform="matrix(1 0 0 1 2247.33 1556)">
   <path d="M 27.7344 -6.20117 L 46.2402 -6.20117 C 46.7773 -6.20117 47.2168 -6.05469 47.6562 -5.71289 L 75.7324 19.3848 C 79.248 22.5586 82.0801 24.1211 85.7422 24.1211 C 91.1133 24.1211 95.166 20.0195 95.166 14.6484 L 95.166 -84.8633 C 95.166 -90.2344 91.1133 -94.5312 85.6445 -94.5312 C 82.1289 -94.5312 79.4922 -92.9688 75.7324 -89.5996 L 47.6562 -64.5996 C 47.2168 -64.209 46.7773 -64.0625 46.2402 -64.0625 L 27.7344 -64.0625 C 17.5781 -64.0625 12.2559 -58.5938 12.2559 -47.9004 L 12.2559 -22.3145 C 12.2559 -11.6699 17.5781 -6.20117 27.7344 -6.20117 Z M 150.488 12.8418 C 153.955 14.8926 158.154 14.0137 160.4 10.5957 C 169.092 -2.09961 174.023 -18.2129 174.023 -35.2539 C 174.023 -52.3438 169.189 -68.5059 160.4 -81.1523 C 158.105 -84.5703 153.955 -85.4492 150.488 -83.3496 C 146.729 -81.1035 146.289 -76.5625 148.877 -72.4121 C 155.518 -62.0605 159.57 -49.0723 159.57 -35.2539 C 159.57 -21.4355 155.615 -8.34961 148.877 1.9043 C 146.289 6.00586 146.729 10.5957 150.488 12.8418 Z M 29.5898 -19.5801 C 27.5879 -19.5801 26.6113 -20.6055 26.6113 -22.5586 L 26.6113 -47.6562 C 26.6113 -49.6582 27.5879 -50.6348 29.5898 -50.6348 L 49.4629 -50.6348 C 51.3672 -50.6348 52.6855 -51.0254 54.248 -52.4414 L 78.8086 -74.8535 C 79.1016 -75.1465 79.4434 -75.293 79.834 -75.293 C 80.4199 -75.293 80.8105 -74.9512 80.8105 -74.3164 L 80.8105 3.90625 C 80.8105 4.54102 80.4199 4.98047 79.8828 4.98047 C 79.4922 4.98047 79.1504 4.78516 78.8086 4.44336 L 54.248 -17.8223 C 52.6855 -19.2383 51.3672 -19.5801 49.4629 -19.5801 Z M 121.631 -5.07812 C 124.902 -3.02734 129.053 -3.80859 131.25 -6.83594 C 136.768 -14.3555 139.99 -24.5605 139.99 -35.2539 C 139.99 -45.9961 136.768 -56.1523 131.25 -63.6719 C 129.053 -66.748 124.902 -67.4805 121.631 -65.4297 C 118.018 -63.0859 117.236 -58.7891 120.166 -54.1016 C 123.535 -49.1211 125.537 -42.2852 125.537 -35.2539 C 125.537 -28.2227 123.486 -21.3867 120.117 -16.4062 C 117.236 -11.7188 118.018 -7.42188 121.631 -5.07812 Z"/>
  </g>
  <g id="Semibold-L" transform="matrix(1 0 0 1 1953.01 1556)">
   <path d="M 25.9766 -7.37305 L 44.6777 -7.37305 C 45.3125 -7.37305 45.8008 -7.22656 46.2402 -6.83594 L 75.0488 18.9453 C 78.2715 21.8262 80.9082 23.2422 84.2285 23.2422 C 89.1113 23.2422 92.627 19.6289 92.627 14.7949 L 92.627 -85.0098 C 92.627 -89.7949 89.1113 -93.7012 84.1309 -93.7012 C 80.8594 -93.7012 78.5156 -92.1875 75.0488 -89.1113 L 46.2402 -63.4277 C 45.8008 -62.9883 45.3125 -62.8418 44.6777 -62.8418 L 25.9766 -62.8418 C 16.5039 -62.8418 11.6699 -57.8613 11.6699 -47.9492 L 11.6699 -22.2656 C 11.6699 -12.3535 16.5039 -7.37305 25.9766 -7.37305 Z M 147.217 11.4258 C 150.195 13.2324 153.809 12.5 155.762 9.57031 C 164.404 -2.73438 169.238 -18.5059 169.238 -35.2539 C 169.238 -52.0508 164.453 -67.8711 155.762 -80.0781 C 153.76 -83.0078 150.195 -83.7891 147.217 -81.9336 C 144.092 -79.9805 143.701 -76.1719 145.947 -72.6562 C 152.686 -62.3047 156.934 -49.2676 156.934 -35.2539 C 156.934 -21.2402 152.832 -8.05664 145.898 2.19727 C 143.701 5.61523 144.092 9.47266 147.217 11.4258 Z M 27.2461 -18.8477 C 25 -18.8477 23.9258 -19.9707 23.9258 -22.168 L 23.9258 -48.0469 C 23.9258 -50.2441 25 -51.3184 27.2461 -51.3184 L 47.5098 -51.3184 C 49.3652 -51.3184 50.6348 -51.6602 52.1973 -53.125 L 78.3203 -76.8555 C 78.6133 -77.1484 79.0039 -77.3926 79.3945 -77.3926 C 79.9805 -77.3926 80.3711 -77.002 80.3711 -76.416 L 80.3711 5.95703 C 80.3711 6.5918 79.9805 6.98242 79.4434 6.98242 C 79.0527 6.98242 78.7109 6.83594 78.3203 6.44531 L 52.1973 -17.1387 C 50.6836 -18.5059 49.3652 -18.8477 47.5098 -18.8477 Z M 119.775 -6.15234 C 122.559 -4.39453 126.123 -4.98047 128.076 -7.71484 C 133.398 -14.8926 136.572 -24.8535 136.572 -35.2539 C 136.572 -45.7031 133.398 -55.6152 128.076 -62.8418 C 126.123 -65.5273 122.559 -66.1621 119.775 -64.4043 C 116.65 -62.3047 116.016 -58.5938 118.555 -54.7363 C 122.021 -49.7559 124.219 -42.627 124.219 -35.2539 C 124.219 -27.8809 121.973 -20.752 118.457 -15.6738 C 116.064 -11.8652 116.65 -8.20312 119.775 -6.15234 Z"/>
  </g>
  <g id="Medium-L" transform="matrix(1 0 0 1 1658.1 1556)">
   <path d="M 24.6094 -8.30078 L 43.5059 -8.30078 C 44.1895 -8.30078 44.7266 -8.10547 45.166 -7.66602 L 74.5605 18.6035 C 77.5391 21.2891 79.9805 22.6074 83.1055 22.6074 C 87.5488 22.6074 90.7227 19.3359 90.7227 14.9414 L 90.7227 -85.1074 C 90.7227 -89.502 87.5488 -93.0664 83.0078 -93.0664 C 79.9316 -93.0664 77.7832 -91.6504 74.5605 -88.7695 L 45.166 -62.5 C 44.7266 -62.1094 44.1895 -61.9141 43.5059 -61.9141 L 24.6094 -61.9141 C 15.7227 -61.9141 11.2305 -57.3242 11.2305 -47.9492 L 11.2305 -22.2168 C 11.2305 -12.8418 15.7227 -8.30078 24.6094 -8.30078 Z M 144.775 10.3027 C 147.363 11.9629 150.488 11.3281 152.295 8.74023 C 160.791 -3.22266 165.625 -18.75 165.625 -35.2539 C 165.625 -51.8066 160.889 -67.4316 152.295 -79.2969 C 150.439 -81.8359 147.363 -82.5195 144.775 -80.8594 C 142.09 -79.1504 141.748 -75.8301 143.701 -72.8516 C 150.537 -62.5 154.883 -49.4141 154.883 -35.2539 C 154.883 -21.1426 150.732 -7.8125 143.652 2.39258 C 141.748 5.32227 142.09 8.59375 144.775 10.3027 Z M 25.4883 -18.3105 C 23.0469 -18.3105 21.9238 -19.4336 21.9238 -21.875 L 21.9238 -48.291 C 21.9238 -50.7324 23.0469 -51.8555 25.4883 -51.8555 L 45.9961 -51.8555 C 47.8516 -51.8555 49.1211 -52.1484 50.6836 -53.6133 L 77.9297 -78.3691 C 78.2715 -78.7109 78.6133 -78.9551 79.1016 -78.9551 C 79.6387 -78.9551 80.0293 -78.5645 80.0293 -77.9785 L 80.0293 7.51953 C 80.0293 8.1543 79.6875 8.54492 79.1016 8.54492 C 78.7109 8.54492 78.3691 8.34961 77.9297 7.95898 L 50.6836 -16.6016 C 49.1211 -17.9688 47.8516 -18.3105 45.9961 -18.3105 Z M 118.408 -6.98242 C 120.752 -5.37109 123.877 -5.9082 125.684 -8.34961 C 130.811 -15.2344 133.936 -25.0488 133.936 -35.2539 C 133.936 -45.5078 130.811 -55.2246 125.684 -62.1582 C 123.877 -64.6484 120.801 -65.1367 118.408 -63.5742 C 115.625 -61.7188 115.137 -58.4473 117.285 -55.2734 C 120.898 -50.1953 123.193 -42.8711 123.193 -35.2539 C 123.193 -27.6367 120.85 -20.2637 117.236 -15.1855 C 115.137 -12.0117 115.625 -8.83789 118.408 -6.98242 Z"/>
  </g>
  <g id="Regular-L" transform="matrix(1 0 0 1 1363.76 1556)">
   <path d="M 22.8516 -9.42383 L 41.9922 -9.42383 C 42.7246 -9.42383 43.3105 -9.22852 43.7988 -8.78906 L 73.877 18.1152 C 76.5625 20.5566 78.8086 21.7773 81.6406 21.7773 C 85.5469 21.7773 88.2324 18.9453 88.2324 15.0879 L 88.2324 -85.2051 C 88.2324 -89.0625 85.5469 -92.2363 81.543 -92.2363 C 78.7109 -92.2363 76.8066 -90.8691 73.877 -88.2812 L 43.7988 -61.3281 C 43.3105 -60.8887 42.7246 -60.6934 41.9922 -60.6934 L 22.8516 -60.6934 C 14.6484 -60.6934 10.6445 -56.6406 10.6445 -47.998 L 10.6445 -22.1191 C 10.6445 -13.5254 14.6484 -9.42383 22.8516 -9.42383 Z M 23.1934 -17.627 C 20.5078 -17.627 19.2871 -18.7988 19.2871 -21.4844 L 19.2871 -48.6328 C 19.2871 -51.3184 20.5078 -52.5391 23.1934 -52.5391 L 44.0918 -52.5391 C 45.8496 -52.5391 47.1191 -52.832 48.6816 -54.248 L 77.4414 -80.3711 C 77.7832 -80.7129 78.1738 -81.0059 78.6621 -81.0059 C 79.1992 -81.0059 79.5898 -80.6152 79.5898 -80.0293 L 79.5898 9.57031 C 79.5898 10.1562 79.248 10.5957 78.6621 10.5957 C 78.2715 10.5957 77.9297 10.4004 77.4414 9.96094 L 48.6816 -15.918 C 47.1191 -17.2852 45.8496 -17.627 44.0918 -17.627 Z M 141.553 8.93555 C 143.652 10.3027 146.191 9.76562 147.705 7.66602 C 156.152 -3.85742 160.889 -19.043 160.889 -35.2539 C 160.889 -51.4648 156.25 -66.7969 147.705 -78.2227 C 146.143 -80.3223 143.652 -80.8594 141.553 -79.4434 C 139.502 -78.0762 139.209 -75.4395 140.82 -73.1445 C 147.754 -62.793 152.246 -49.5605 152.246 -35.2539 C 152.246 -20.9473 147.998 -7.51953 140.771 2.63672 C 139.209 4.88281 139.502 7.51953 141.553 8.93555 Z M 116.553 -8.00781 C 118.408 -6.68945 120.996 -7.12891 122.559 -9.22852 C 127.49 -15.7715 130.518 -25.3418 130.518 -35.2539 C 130.518 -45.2148 127.49 -54.7363 122.559 -61.3281 C 120.996 -63.4277 118.457 -63.8184 116.553 -62.5488 C 114.307 -60.9375 113.965 -58.252 115.674 -55.9082 C 119.434 -50.7812 121.875 -43.1641 121.875 -35.2539 C 121.875 -27.2949 119.336 -19.6777 115.576 -14.502 C 113.965 -12.207 114.307 -9.61914 116.553 -8.00781 Z"/>
  </g>
  <g id="Light-L" transform="matrix(1 0 0 1 1068.32 1556)">
   <path d="M 20.166 -10.5957 L 39.8926 -10.5957 C 40.7715 -10.5957 41.4551 -10.3516 41.9922 -9.81445 L 72.8027 17.627 C 74.9023 19.5801 76.8555 20.7031 79.2969 20.7031 C 82.666 20.7031 84.8633 18.2129 84.8633 14.8926 L 84.8633 -85.2051 C 84.8633 -88.5254 82.666 -91.2109 79.1992 -91.2109 C 76.8066 -91.2109 75.0977 -89.9902 72.8027 -87.9395 L 41.9922 -60.1562 C 41.4551 -59.668 40.7715 -59.375 39.8926 -59.375 L 20.166 -59.375 C 12.9883 -59.375 9.52148 -55.9082 9.52148 -48.4375 L 9.52148 -21.5332 C 9.52148 -14.1113 12.9883 -10.5957 20.166 -10.5957 Z M 20.3613 -16.8945 C 17.3828 -16.8945 16.1621 -18.1152 16.1621 -21.1426 L 16.1621 -48.8281 C 16.1621 -51.8555 17.3828 -53.0762 20.3613 -53.0762 L 41.1621 -53.0762 C 43.0664 -53.0762 44.3359 -53.3691 45.8984 -54.834 L 75.7812 -82.0801 C 76.2207 -82.4707 76.6113 -82.8125 77.1973 -82.8125 C 77.832 -82.8125 78.2715 -82.4219 78.2715 -81.7871 L 78.2715 11.1816 C 78.2715 11.8652 77.8809 12.3535 77.2461 12.3535 C 76.8555 12.3535 76.416 12.1582 75.8301 11.6211 L 45.8984 -15.2344 C 44.3848 -16.6016 43.0664 -16.8945 41.1621 -16.8945 Z M 140.381 8.25195 C 141.992 9.375 143.945 8.93555 145.117 7.32422 C 153.613 -4.05273 158.35 -18.9941 158.35 -35.2539 C 158.35 -51.5625 153.711 -66.5527 145.117 -77.8809 C 143.896 -79.4922 141.992 -79.8828 140.381 -78.8086 C 138.818 -77.7344 138.623 -75.7812 139.844 -73.9746 C 146.924 -63.2324 151.758 -50.0977 151.758 -35.2539 C 151.758 -20.4102 147.363 -6.83594 139.746 3.51562 C 138.574 5.22461 138.818 7.17773 140.381 8.25195 Z M 115.625 -8.59375 C 117.041 -7.56836 119.043 -7.86133 120.215 -9.47266 C 125.098 -15.8691 128.271 -25.2441 128.271 -35.2539 C 128.271 -45.3125 125.098 -54.6387 120.215 -61.084 C 119.043 -62.6953 117.09 -62.9883 115.625 -61.9629 C 113.916 -60.7422 113.623 -58.6914 114.99 -56.9336 C 118.945 -51.5137 121.631 -43.7012 121.631 -35.2539 C 121.631 -26.7578 118.848 -18.8477 114.844 -13.4277 C 113.623 -11.7676 113.916 -9.76562 115.625 -8.59375 Z"/>
  </g>
  <g id="Thin-L" transform="matrix(1 0 0 1 773.292 1556)">
   <path d="M 16.6016 -12.1094 L 37.1094 -12.1094 C 38.1836 -12.1094 38.9648 -11.8164 39.6484 -11.1816 L 71.3379 16.9922 C 72.7051 18.3105 74.2676 19.2871 76.1719 19.2871 C 78.9062 19.2871 80.4199 17.2363 80.4199 14.6484 L 80.4199 -85.1562 C 80.4199 -87.7441 78.9062 -89.8438 76.1719 -89.8438 C 74.2676 -89.8438 72.7539 -88.8184 71.3379 -87.5 L 39.6484 -58.5938 C 38.9648 -58.0078 38.1836 -57.666 37.1094 -57.666 L 16.6016 -57.666 C 10.791 -57.666 8.05664 -54.9316 8.05664 -49.0234 L 8.05664 -20.752 C 8.05664 -14.8926 10.791 -12.1094 16.6016 -12.1094 Z M 16.6504 -15.9668 C 13.2324 -15.9668 11.9629 -17.2363 11.9629 -20.6543 L 11.9629 -49.1211 C 11.9629 -52.5391 13.2324 -53.8086 16.6504 -53.8086 L 37.3047 -53.8086 C 39.3555 -53.8086 40.625 -54.0527 42.2363 -55.5664 L 73.584 -84.2773 C 74.1211 -84.7656 74.6094 -85.2051 75.293 -85.2051 C 75.9766 -85.2051 76.4648 -84.7656 76.4648 -84.0332 L 76.4648 13.3789 C 76.4648 14.1602 76.0742 14.6973 75.3906 14.6973 C 74.9023 14.6973 74.4141 14.4531 73.6816 13.7695 L 42.2363 -14.3066 C 40.7227 -15.6738 39.3555 -15.9668 37.3047 -15.9668 Z M 138.867 7.42188 C 139.844 8.10547 140.967 7.8125 141.65 6.88477 C 150.293 -4.29688 154.98 -18.8965 154.98 -35.2539 C 154.98 -51.6602 150.293 -66.2109 141.65 -77.4414 C 140.967 -78.3691 139.844 -78.6133 138.867 -77.9785 C 137.939 -77.2949 137.891 -76.1719 138.574 -75.0977 C 145.801 -63.916 151.025 -50.7812 151.025 -35.2539 C 151.025 -19.6777 146.582 -5.9082 138.428 4.6875 C 137.744 5.61523 137.939 6.73828 138.867 7.42188 Z M 114.355 -9.32617 C 115.234 -8.69141 116.406 -8.88672 117.09 -9.76562 C 121.924 -16.0156 125.293 -25.1465 125.293 -35.2539 C 125.293 -45.459 121.924 -54.541 117.09 -60.7422 C 116.406 -61.6699 115.332 -61.8652 114.355 -61.1816 C 113.428 -60.498 113.232 -59.3262 114.062 -58.252 C 118.262 -52.4902 121.338 -44.4336 121.338 -35.2539 C 121.338 -25.9766 118.164 -17.7734 113.818 -12.0117 C 113.184 -11.1328 113.428 -10.0098 114.355 -9.32617 Z"/>
  </g>
  <g id="Ultralight-L" transform="matrix(1 0 0 1 477.46 1556)">
   <path d="M 14.7949 -12.8906 L 35.6445 -12.8906 C 36.8164 -12.8906 37.6465 -12.5488 38.4277 -11.8652 L 70.5566 16.6992 C 71.582 17.6758 72.9492 18.6035 74.6094 18.6035 C 77.002 18.6035 78.125 16.748 78.125 14.5508 L 78.125 -85.1074 C 78.125 -87.3535 77.002 -89.1113 74.6094 -89.1113 C 72.9492 -89.1113 71.582 -88.2324 70.5566 -87.2559 L 38.4277 -57.8125 C 37.6465 -57.1289 36.8164 -56.7871 35.6445 -56.7871 L 14.7949 -56.7871 C 9.66797 -56.7871 7.27539 -54.3945 7.27539 -49.3164 L 7.27539 -20.3613 C 7.27539 -15.2832 9.66797 -12.8906 14.7949 -12.8906 Z M 14.7461 -15.4785 C 11.1328 -15.4785 9.81445 -16.7969 9.81445 -20.459 L 9.81445 -49.2676 C 9.81445 -52.8809 11.1328 -54.1992 14.7461 -54.1992 L 35.3027 -54.1992 C 37.4512 -54.1992 38.7207 -54.4434 40.332 -55.957 L 72.4609 -85.4492 C 73.0469 -85.9375 73.584 -86.4258 74.3164 -86.4258 C 75.0488 -86.4258 75.5371 -85.9375 75.5371 -85.2051 L 75.5371 14.502 C 75.5371 15.332 75.1465 15.918 74.4141 15.918 C 73.9258 15.918 73.4375 15.625 72.5586 14.8926 L 40.332 -13.8184 C 38.8184 -15.1855 37.4512 -15.4785 35.3027 -15.4785 Z M 138.086 6.98242 C 138.77 7.42188 139.453 7.22656 139.893 6.68945 C 148.584 -4.44336 153.271 -18.8477 153.271 -35.2539 C 153.271 -51.709 148.584 -66.0645 139.893 -77.1973 C 139.453 -77.7832 138.77 -77.9785 138.086 -77.5391 C 137.451 -77.0508 137.5 -76.3672 137.939 -75.6836 C 145.215 -64.209 150.684 -51.123 150.684 -35.2539 C 150.684 -19.3359 146.143 -5.46875 137.744 5.32227 C 137.305 5.85938 137.451 6.54297 138.086 6.98242 Z M 113.721 -9.7168 C 114.307 -9.22852 115.088 -9.375 115.527 -9.91211 C 120.312 -16.0645 123.73 -25.0977 123.73 -35.2539 C 123.73 -45.5078 120.312 -54.4434 115.527 -60.5957 C 115.088 -61.1816 114.404 -61.2793 113.721 -60.8398 C 113.184 -60.4004 113.037 -59.6191 113.574 -58.9355 C 117.871 -52.9785 121.191 -44.7754 121.191 -35.2539 C 121.191 -25.5859 117.822 -17.2363 113.281 -11.2793 C 112.939 -10.8398 113.184 -10.1562 113.721 -9.7168 Z"/>
  </g>
  <g id="Black-M" transform="matrix(1 0 0 1 2853.03 1126)">
   <path d="M 27.002 -8.78906 L 40.7227 -8.78906 C 40.9668 -8.78906 41.1133 -8.78906 41.3574 -8.54492 L 60.6934 8.64258 C 64.3066 11.9141 67.1387 13.4277 70.9961 13.4277 C 77.002 13.4277 81.6895 8.78906 81.6895 2.73438 L 81.6895 -73.1445 C 81.6895 -79.1504 77.002 -83.8379 70.9961 -83.8379 C 67.3828 -83.8379 64.4531 -82.4707 60.6934 -79.0527 L 41.3574 -61.9141 C 41.0645 -61.6699 40.9668 -61.6211 40.7227 -61.6211 L 27.002 -61.6211 C 16.8457 -61.6211 11.1816 -55.7129 11.1816 -45.166 L 11.1816 -25.1953 C 11.1816 -14.6973 16.8457 -8.78906 27.002 -8.78906 Z M 128.613 7.17773 C 132.959 9.57031 138.184 8.49609 140.82 4.24805 C 148.047 -7.17773 152.002 -20.752 152.002 -35.2539 C 152.002 -49.7559 148.047 -63.3301 140.82 -74.8047 C 138.184 -79.0039 132.959 -80.0781 128.613 -77.6855 C 123.584 -74.9023 123.047 -68.9941 126.27 -63.4766 C 131.055 -55.2734 133.74 -45.5566 133.74 -35.2539 C 133.74 -25 131.055 -15.2832 126.27 -7.03125 C 123.047 -1.51367 123.584 4.39453 128.613 7.17773 Z M 100.928 -8.10547 C 105.225 -5.56641 110.254 -6.5918 112.744 -10.0098 C 117.822 -17.1875 120.703 -25.8789 120.703 -35.2539 C 120.703 -44.6289 117.822 -53.3203 112.744 -60.498 C 110.254 -63.9648 105.225 -64.9414 100.928 -62.4512 C 96.4844 -59.8145 95.3125 -54.4922 99.1211 -47.8027 C 101.221 -44.043 102.393 -39.7949 102.393 -35.2539 C 102.393 -30.7129 101.221 -26.4648 99.1211 -22.7051 C 95.3125 -16.0156 96.4844 -10.7422 100.928 -8.10547 Z M 30.4199 -25.5371 C 29.7852 -25.5371 29.1992 -26.123 29.1992 -26.7578 L 29.1992 -43.6523 C 29.1992 -44.2871 29.7852 -44.8242 30.4199 -44.8242 L 44.3848 -44.8242 C 46.0938 -44.8242 47.2168 -45.2148 48.3887 -46.3379 L 62.1582 -58.9844 C 62.3047 -59.1797 62.5977 -59.2285 62.8418 -59.2285 C 63.2812 -59.2285 63.623 -58.9355 63.623 -58.3496 L 63.623 -11.9629 C 63.623 -11.4258 63.2812 -11.0352 62.8418 -11.0352 C 62.5977 -11.0352 62.3047 -11.1816 62.1582 -11.377 L 48.3887 -24.0723 C 47.2168 -25.1953 46.0938 -25.5371 44.3848 -25.5371 Z"/>
  </g>
  <g id="Heavy-M" transform="matrix(1 0 0 1 2559.37 1126)">
   <path d="M 25.1465 -10.1562 L 39.0625 -10.1562 C 39.3555 -10.1562 39.5996 -10.1074 39.8438 -9.86328 L 60.0098 8.10547 C 63.3789 11.1328 65.9668 12.5 69.4824 12.5 C 74.8535 12.5 79.0039 8.39844 79.0039 2.97852 L 79.0039 -73.3398 C 79.0039 -78.7109 74.8535 -82.9102 69.4336 -82.9102 C 66.1621 -82.9102 63.5254 -81.5918 60.0098 -78.4668 L 39.8438 -60.5469 C 39.5508 -60.3027 39.3555 -60.2051 39.0625 -60.2051 L 25.1465 -60.2051 C 15.7715 -60.2051 10.6445 -54.8828 10.6445 -45.1172 L 10.6445 -25.2441 C 10.6445 -15.4785 15.7715 -10.1562 25.1465 -10.1562 Z M 124.316 5.32227 C 128.076 7.4707 132.617 6.49414 134.961 2.83203 C 141.992 -8.05664 145.898 -21.2402 145.898 -35.2539 C 145.898 -49.3164 141.992 -62.5 134.961 -73.3398 C 132.617 -77.0508 128.076 -77.9785 124.316 -75.8301 C 120.02 -73.4375 119.58 -68.3105 122.363 -63.623 C 127.246 -55.5176 130.078 -45.6543 130.078 -35.2539 C 130.078 -24.8535 127.295 -14.9902 122.363 -6.88477 C 119.58 -2.19727 120.02 2.92969 124.316 5.32227 Z M 98.584 -9.42383 C 102.246 -7.22656 106.641 -8.10547 108.838 -11.1816 C 113.623 -17.8711 116.357 -26.2695 116.357 -35.2539 C 116.357 -44.2383 113.623 -52.6367 108.838 -59.3262 C 106.641 -62.4512 102.246 -63.2812 98.584 -61.084 C 94.6777 -58.7402 93.7012 -54.1016 96.9727 -48.4863 C 99.2676 -44.7266 100.537 -40.0879 100.537 -35.2539 C 100.537 -30.4199 99.2188 -25.7812 96.9727 -22.0215 C 93.7012 -16.4062 94.6777 -11.8164 98.584 -9.42383 Z M 27.8809 -24.707 C 26.9043 -24.707 26.2695 -25.3418 26.2695 -26.3184 L 26.2695 -44.0918 C 26.2695 -45.0195 26.9043 -45.6543 27.8809 -45.6543 L 42.3828 -45.6543 C 43.9941 -45.6543 45.0684 -45.9961 46.2402 -47.1191 L 61.8652 -61.4258 C 62.0605 -61.6211 62.3047 -61.6699 62.5977 -61.6699 C 62.9883 -61.6699 63.3789 -61.377 63.3789 -60.8398 L 63.3789 -9.52148 C 63.3789 -8.98438 62.9883 -8.59375 62.5977 -8.59375 C 62.3047 -8.59375 62.0605 -8.74023 61.8652 -8.93555 L 46.2402 -23.2422 C 45.0684 -24.3652 43.9941 -24.707 42.3828 -24.707 Z"/>
  </g>
  <g id="Bold-M" transform="matrix(1 0 0 1 2266.08 1126)">
   <path d="M 23.0957 -11.6699 L 37.207 -11.6699 C 37.5977 -11.6699 37.8906 -11.6211 38.1836 -11.3281 L 59.2773 7.51953 C 62.3047 10.2051 64.6484 11.5234 67.7734 11.5234 C 72.4609 11.5234 75.9766 7.95898 75.9766 3.32031 L 75.9766 -73.584 C 75.9766 -78.2227 72.4609 -81.9336 67.7246 -81.9336 C 64.7461 -81.9336 62.5 -80.6641 59.2773 -77.7832 L 38.1836 -59.0332 C 37.8418 -58.7402 37.5977 -58.6426 37.207 -58.6426 L 23.0957 -58.6426 C 14.5996 -58.6426 10.0586 -53.9551 10.0586 -45.0195 L 10.0586 -25.293 C 10.0586 -16.3574 14.5996 -11.6699 23.0957 -11.6699 Z M 119.482 3.27148 C 122.607 5.07812 126.416 4.29688 128.418 1.2207 C 135.254 -8.98438 139.062 -21.7285 139.062 -35.2539 C 139.062 -48.7793 135.254 -61.5723 128.418 -71.7773 C 126.367 -74.8535 122.607 -75.6348 119.482 -73.7793 C 116.016 -71.7773 115.625 -67.5781 117.969 -63.8184 C 123.047 -55.7617 126.025 -45.8008 126.025 -35.2539 C 126.025 -24.707 123.047 -14.6973 117.969 -6.68945 C 115.625 -2.92969 116.016 1.2207 119.482 3.27148 Z M 25 -23.7793 C 23.7305 -23.7793 22.998 -24.4629 22.998 -25.7812 L 22.998 -44.5801 C 22.998 -45.8496 23.7305 -46.582 25 -46.582 L 40.0879 -46.582 C 41.6016 -46.582 42.6758 -46.875 43.8477 -47.998 L 61.5234 -64.1113 C 61.7676 -64.3555 62.0117 -64.4531 62.3047 -64.4531 C 62.7441 -64.4531 63.0371 -64.1602 63.0371 -63.6719 L 63.0371 -6.73828 C 63.0371 -6.25 62.7441 -5.9082 62.3047 -5.9082 C 62.0605 -5.9082 61.7676 -6.00586 61.5234 -6.25 L 43.8477 -22.3633 C 42.6758 -23.4375 41.6016 -23.7793 40.0879 -23.7793 Z M 95.8984 -10.9375 C 98.877 -9.08203 102.588 -9.81445 104.541 -12.5 C 108.984 -18.6035 111.572 -26.7578 111.572 -35.2539 C 111.572 -43.7988 108.984 -51.8555 104.541 -58.0566 C 102.588 -60.7422 98.877 -61.4258 95.8984 -59.5703 C 92.627 -57.5195 91.8945 -53.6621 94.5801 -49.2676 C 97.0215 -45.459 98.4863 -40.4297 98.4863 -35.2539 C 98.4863 -30.0781 97.0215 -25.0488 94.5801 -21.2402 C 91.8945 -16.8457 92.627 -12.9883 95.8984 -10.9375 Z"/>
  </g>
  <g id="Semibold-M" transform="matrix(1 0 0 1 1971.71 1126)">
   <path d="M 21.6797 -12.7441 L 35.9375 -12.7441 C 36.377 -12.7441 36.7188 -12.6465 37.0117 -12.3535 L 58.7891 7.12891 C 61.5723 9.61914 63.7695 10.791 66.6016 10.791 C 70.8008 10.791 73.9258 7.66602 73.9258 3.51562 L 73.9258 -73.7305 C 73.9258 -77.8809 70.8008 -81.2012 66.5527 -81.2012 C 63.7695 -81.2012 61.7676 -79.9805 58.7891 -77.3438 L 37.0117 -58.0078 C 36.6699 -57.7148 36.377 -57.5684 35.9375 -57.5684 L 21.6797 -57.5684 C 13.7695 -57.5684 9.61914 -53.3203 9.61914 -44.9707 L 9.61914 -25.3418 C 9.61914 -16.9922 13.7695 -12.7441 21.6797 -12.7441 Z M 116.162 1.85547 C 118.848 3.4668 122.07 2.7832 123.877 0.146484 C 130.566 -9.66797 134.375 -22.1191 134.375 -35.2539 C 134.375 -48.3887 130.615 -60.9375 123.877 -70.6543 C 122.07 -73.3398 118.848 -73.9746 116.162 -72.3633 C 113.281 -70.6055 112.939 -67.0898 114.941 -63.916 C 120.117 -55.957 123.193 -45.8984 123.193 -35.2539 C 123.193 -24.6094 120.117 -14.502 114.941 -6.5918 C 112.939 -3.41797 113.281 0.0976562 116.162 1.85547 Z M 23.0469 -23.0957 C 21.5332 -23.0957 20.7031 -23.877 20.7031 -25.3906 L 20.7031 -44.9219 C 20.7031 -46.4355 21.5332 -47.2168 23.0469 -47.2168 L 38.5254 -47.2168 C 39.9902 -47.2168 41.0156 -47.5098 42.1875 -48.584 L 61.3281 -66.0156 C 61.5234 -66.2109 61.8164 -66.3574 62.1094 -66.3574 C 62.5488 -66.3574 62.8418 -66.0645 62.8418 -65.625 L 62.8418 -4.78516 C 62.8418 -4.3457 62.5488 -4.00391 62.1094 -4.00391 C 61.8652 -4.00391 61.5723 -4.15039 61.3281 -4.39453 L 42.1875 -21.7285 C 41.0156 -22.8027 39.9902 -23.0957 38.5254 -23.0957 Z M 94.0918 -11.9629 C 96.582 -10.4004 99.8047 -10.9375 101.514 -13.3789 C 105.762 -19.1406 108.252 -27.0508 108.252 -35.2539 C 108.252 -43.457 105.762 -51.3184 101.514 -57.1289 C 99.8047 -59.5703 96.582 -60.1562 94.0918 -58.5449 C 91.2109 -56.6895 90.6738 -53.3203 92.9199 -49.7559 C 95.5078 -45.9961 97.0703 -40.6738 97.0703 -35.2539 C 97.0703 -29.834 95.459 -24.5117 92.9199 -20.7031 C 90.6738 -17.1387 91.2109 -13.8184 94.0918 -11.9629 Z"/>
  </g>
  <g id="Medium-M" transform="matrix(1 0 0 1 1676.78 1126)">
   <path d="M 20.6055 -13.5742 L 35.0098 -13.5742 C 35.4492 -13.5742 35.791 -13.4277 36.1328 -13.1348 L 58.3984 6.78711 C 61.0352 9.13086 63.0859 10.2539 65.7227 10.2539 C 69.5312 10.2539 72.3633 7.42188 72.3633 3.66211 L 72.3633 -73.8281 C 72.3633 -77.6367 69.5312 -80.6641 65.6738 -80.6641 C 63.0371 -80.6641 61.2305 -79.4922 58.3984 -77.002 L 36.1328 -57.1777 C 35.791 -56.8848 35.4492 -56.7383 35.0098 -56.7383 L 20.6055 -56.7383 C 13.1348 -56.7383 9.32617 -52.8809 9.32617 -44.9219 L 9.32617 -25.3906 C 9.32617 -17.4316 13.1348 -13.5742 20.6055 -13.5742 Z M 113.623 0.78125 C 115.967 2.24609 118.848 1.66016 120.41 -0.683594 C 127.051 -10.1562 130.811 -22.3633 130.811 -35.2539 C 130.811 -48.1445 127.1 -60.4492 120.41 -69.8242 C 118.799 -72.168 115.967 -72.7539 113.623 -71.2891 C 111.23 -69.7266 110.889 -66.6992 112.646 -64.0137 C 117.871 -56.1035 121.045 -45.9473 121.045 -35.2539 C 121.045 -24.5605 117.92 -14.3555 112.646 -6.49414 C 110.889 -3.80859 111.23 -0.78125 113.623 0.78125 Z M 21.5332 -22.6074 C 19.8242 -22.6074 18.9941 -23.4375 18.9941 -25.1465 L 18.9941 -45.166 C 18.9941 -46.875 19.8242 -47.7051 21.5332 -47.7051 L 37.3535 -47.7051 C 38.7695 -47.7051 39.7461 -47.9492 40.918 -49.0723 L 61.1328 -67.4316 C 61.377 -67.627 61.6699 -67.8223 61.9629 -67.8223 C 62.3535 -67.8223 62.6953 -67.5293 62.6953 -67.0898 L 62.6953 -3.36914 C 62.6953 -2.88086 62.4023 -2.58789 61.9629 -2.58789 C 61.7188 -2.58789 61.4258 -2.73438 61.1816 -2.97852 L 40.918 -21.2891 C 39.7461 -22.3633 38.7695 -22.6074 37.3535 -22.6074 Z M 92.6758 -12.793 C 94.8242 -11.377 97.6562 -11.8652 99.2676 -14.0625 C 103.32 -19.5312 105.713 -27.2949 105.713 -35.2539 C 105.713 -43.2617 103.32 -50.9277 99.2676 -56.4941 C 97.6562 -58.6914 94.8242 -59.1797 92.6758 -57.7637 C 90.1855 -56.0547 89.6973 -53.125 91.6992 -50.1953 C 94.3848 -46.3867 95.9961 -40.8203 95.9961 -35.2539 C 95.9961 -29.6387 94.3359 -24.1211 91.6504 -20.3125 C 89.7461 -17.3828 90.1855 -14.4531 92.6758 -12.793 Z"/>
  </g>
  <g id="Regular-M" transform="matrix(1 0 0 1 1382.41 1126)">
   <path d="M 19.2383 -14.5996 L 33.7402 -14.5996 C 34.2285 -14.5996 34.668 -14.4531 34.9609 -14.1602 L 57.9102 6.39648 C 60.3027 8.54492 62.207 9.57031 64.5996 9.57031 C 67.9199 9.57031 70.3125 7.12891 70.3125 3.85742 L 70.3125 -74.0234 C 70.3125 -77.2949 67.9199 -79.9805 64.502 -79.9805 C 62.1094 -79.9805 60.5469 -78.8574 57.9102 -76.5137 L 34.9609 -56.1523 C 34.668 -55.8594 34.2285 -55.7129 33.7402 -55.7129 L 19.2383 -55.7129 C 12.3047 -55.7129 8.88672 -52.2461 8.88672 -44.873 L 8.88672 -25.4395 C 8.88672 -18.0664 12.3047 -14.5996 19.2383 -14.5996 Z M 110.352 -0.634766 C 112.256 0.634766 114.6 0.146484 115.967 -1.80664 C 122.412 -10.791 126.172 -22.7539 126.172 -35.2539 C 126.172 -47.8027 122.51 -59.8145 115.967 -68.75 C 114.551 -70.6543 112.256 -71.1426 110.352 -69.873 C 108.496 -68.6035 108.203 -66.2109 109.668 -64.1113 C 114.99 -56.2988 118.311 -46.0449 118.311 -35.2539 C 118.311 -24.4629 115.039 -14.1113 109.668 -6.39648 C 108.252 -4.29688 108.496 -1.9043 110.352 -0.634766 Z M 19.5801 -21.9727 C 17.6758 -21.9727 16.748 -22.8516 16.748 -24.8047 L 16.748 -45.5078 C 16.748 -47.4121 17.6758 -48.3398 19.5801 -48.3398 L 35.8398 -48.3398 C 37.1582 -48.3398 38.0859 -48.5352 39.3066 -49.6582 L 60.9375 -69.2871 C 61.1816 -69.4824 61.4746 -69.6777 61.7676 -69.6777 C 62.1582 -69.6777 62.4512 -69.3848 62.4512 -68.9941 L 62.4512 -1.46484 C 62.4512 -1.02539 62.207 -0.732422 61.7676 -0.732422 C 61.5234 -0.732422 61.2305 -0.878906 60.9375 -1.17188 L 39.3066 -20.6543 C 38.0859 -21.7285 37.1582 -21.9727 35.8398 -21.9727 Z M 90.8691 -13.8184 C 92.5293 -12.6465 94.9219 -12.9883 96.3379 -14.9414 C 100.146 -20.0684 102.441 -27.5879 102.441 -35.2539 C 102.441 -42.9199 100.146 -50.3906 96.3379 -55.5664 C 94.9219 -57.5195 92.5781 -57.8613 90.8691 -56.7383 C 88.7695 -55.2734 88.4766 -52.7832 90.0391 -50.6836 C 92.8711 -46.875 94.5801 -41.0645 94.5801 -35.2539 C 94.5801 -29.4434 92.7734 -23.6328 89.9902 -19.7754 C 88.5254 -17.6758 88.7695 -15.2832 90.8691 -13.8184 Z"/>
  </g>
  <g id="Light-M" transform="matrix(1 0 0 1 1086.85 1126)">
   <path d="M 16.8457 -15.625 L 31.8359 -15.625 C 32.4707 -15.625 32.959 -15.4297 33.3496 -15.0879 L 56.8848 5.95703 C 58.7891 7.66602 60.4492 8.59375 62.5 8.59375 C 65.332 8.59375 67.2852 6.49414 67.2852 3.71094 L 67.2852 -73.9746 C 67.2852 -76.7578 65.332 -79.0527 62.4023 -79.0527 C 60.4004 -79.0527 58.9844 -78.0762 56.8848 -76.2207 L 33.3496 -55.0781 C 32.959 -54.7363 32.4707 -54.541 31.8359 -54.541 L 16.8457 -54.541 C 10.8398 -54.541 7.91016 -51.5625 7.91016 -45.2637 L 7.91016 -24.9023 C 7.91016 -18.6035 10.8398 -15.625 16.8457 -15.625 Z M 17.041 -21.3379 C 14.8438 -21.3379 13.916 -22.2656 13.916 -24.4629 L 13.916 -45.7031 C 13.916 -47.9004 14.8438 -48.8281 17.041 -48.8281 L 33.2031 -48.8281 C 34.6191 -48.8281 35.5957 -49.0234 36.8164 -50.1465 L 59.4727 -70.8008 C 59.7656 -71.0449 60.0586 -71.2891 60.498 -71.2891 C 60.9375 -71.2891 61.2305 -70.9961 61.2305 -70.5078 L 61.2305 0 C 61.2305 0.488281 60.9863 0.830078 60.498 0.830078 C 60.2051 0.830078 59.8633 0.683594 59.4727 0.341797 L 36.8164 -20.0195 C 35.6445 -21.0938 34.6191 -21.3379 33.2031 -21.3379 Z M 109.326 -1.2207 C 110.791 -0.244141 112.549 -0.634766 113.623 -2.09961 C 120.166 -10.9863 123.877 -22.6562 123.877 -35.2539 C 123.877 -47.8516 120.264 -59.6191 113.623 -68.457 C 112.549 -69.9219 110.791 -70.2637 109.326 -69.2871 C 107.91 -68.3105 107.715 -66.5039 108.789 -64.8926 C 114.209 -56.7383 117.822 -46.5332 117.822 -35.2539 C 117.822 -23.9746 114.502 -13.5254 108.74 -5.56641 C 107.666 -4.00391 107.91 -2.19727 109.326 -1.2207 Z M 90.0391 -14.3066 C 91.3086 -13.3789 93.1152 -13.6719 94.1895 -15.1367 C 97.998 -20.166 100.391 -27.5391 100.391 -35.2539 C 100.391 -43.0176 97.998 -50.293 94.1895 -55.3711 C 93.1152 -56.8359 91.3574 -57.1289 90.0391 -56.2012 C 88.4766 -55.0781 88.1836 -53.2227 89.4043 -51.6113 C 92.3828 -47.5098 94.3848 -41.5527 94.3848 -35.2539 C 94.3848 -28.9062 92.334 -22.9004 89.3066 -18.7988 C 88.1836 -17.2363 88.4766 -15.4297 90.0391 -14.3066 Z"/>
  </g>
  <g id="Thin-M" transform="matrix(1 0 0 1 791.652 1126)">
   <path d="M 13.6719 -16.9922 L 29.3457 -16.9922 C 30.127 -16.9922 30.7129 -16.748 31.25 -16.3086 L 55.5664 5.37109 C 56.8359 6.54297 58.1055 7.32422 59.7168 7.32422 C 61.9629 7.32422 63.2812 5.66406 63.2812 3.4668 L 63.2812 -73.9258 C 63.2812 -76.0742 61.9629 -77.832 59.668 -77.832 C 58.1055 -77.832 56.8848 -77.002 55.5664 -75.8301 L 31.25 -53.6621 C 30.7129 -53.2227 30.127 -52.9785 29.3457 -52.9785 L 13.6719 -52.9785 C 8.83789 -52.9785 6.54297 -50.6836 6.54297 -45.8008 L 6.54297 -24.1699 C 6.54297 -19.2871 8.83789 -16.9922 13.6719 -16.9922 Z M 13.7207 -20.5078 C 11.1328 -20.5078 10.1562 -21.4844 10.1562 -24.0723 L 10.1562 -45.9473 C 10.1562 -48.4863 11.1328 -49.4629 13.7207 -49.4629 L 29.7363 -49.4629 C 31.2988 -49.4629 32.2754 -49.6582 33.4961 -50.8301 L 57.5195 -72.7539 C 57.9102 -73.0957 58.252 -73.4375 58.7891 -73.4375 C 59.2773 -73.4375 59.668 -73.0957 59.668 -72.5586 L 59.668 1.95312 C 59.668 2.53906 59.3262 2.92969 58.8379 2.92969 C 58.4473 2.92969 58.1055 2.7832 57.5684 2.29492 L 33.4961 -19.1895 C 32.3242 -20.2637 31.2988 -20.5078 29.7363 -20.5078 Z M 107.959 -2.00195 C 108.838 -1.36719 109.912 -1.61133 110.498 -2.49023 C 117.188 -11.2305 120.85 -22.6074 120.85 -35.2539 C 120.85 -47.9492 117.236 -59.3262 110.498 -68.0176 C 109.863 -68.8965 108.838 -69.1406 107.959 -68.5059 C 107.08 -67.9199 107.031 -66.8945 107.666 -65.8691 C 113.232 -57.3242 117.188 -47.1191 117.188 -35.2539 C 117.188 -23.3398 113.77 -12.6953 107.568 -4.54102 C 106.934 -3.66211 107.08 -2.58789 107.959 -2.00195 Z M 88.916 -14.9902 C 89.6973 -14.4043 90.7715 -14.5996 91.4062 -15.4297 C 95.2148 -20.3125 97.7539 -27.4414 97.7539 -35.2539 C 97.7539 -43.1152 95.2148 -50.1953 91.4062 -55.0781 C 90.7715 -55.957 89.7461 -56.1035 88.916 -55.5176 C 88.0371 -54.8828 87.8418 -53.7598 88.5742 -52.7832 C 91.7969 -48.3887 94.0918 -42.1875 94.0918 -35.2539 C 94.0918 -28.2227 91.6992 -21.9238 88.4277 -17.5293 C 87.793 -16.6992 88.0371 -15.6738 88.916 -14.9902 Z"/>
  </g>
  <g id="Ultralight-M" transform="matrix(1 0 0 1 495.697 1126)">
   <path d="M 12.0117 -17.6758 L 28.0762 -17.6758 C 28.9551 -17.6758 29.5898 -17.4316 30.127 -16.9434 L 54.9316 5.07812 C 55.8105 5.95703 56.9336 6.68945 58.3008 6.68945 C 60.2539 6.68945 61.2305 5.22461 61.2305 3.36914 L 61.2305 -73.877 C 61.2305 -75.7324 60.2539 -77.1973 58.3008 -77.1973 C 56.9336 -77.1973 55.8105 -76.4648 54.9316 -75.6348 L 30.127 -52.9785 C 29.5898 -52.4414 28.9551 -52.1973 28.0762 -52.1973 L 12.0117 -52.1973 C 7.8125 -52.1973 5.85938 -50.2441 5.85938 -46.0449 L 5.85938 -23.8281 C 5.85938 -19.6289 7.8125 -17.6758 12.0117 -17.6758 Z M 12.0117 -20.0684 C 9.27734 -20.0684 8.25195 -21.0938 8.25195 -23.8281 L 8.25195 -46.0449 C 8.25195 -48.8281 9.27734 -49.8047 12.0117 -49.8047 L 27.9785 -49.8047 C 29.5898 -49.8047 30.5664 -50 31.8359 -51.1719 L 56.4941 -73.7793 C 56.9336 -74.1699 57.3242 -74.5605 57.9102 -74.5605 C 58.4473 -74.5605 58.8379 -74.1699 58.8379 -73.6328 L 58.8379 2.97852 C 58.8379 3.61328 58.4961 4.05273 57.959 4.05273 C 57.5684 4.05273 57.1777 3.85742 56.5918 3.27148 L 31.8359 -18.75 C 30.6641 -19.8242 29.5898 -20.0684 27.9785 -20.0684 Z M 107.275 -2.39258 C 107.861 -1.95312 108.496 -2.14844 108.936 -2.68555 C 115.674 -11.3281 119.287 -22.5586 119.287 -35.2539 C 119.287 -47.998 115.674 -59.1797 108.936 -67.8223 C 108.545 -68.3594 107.861 -68.5547 107.275 -68.1152 C 106.689 -67.7246 106.689 -67.041 107.08 -66.4062 C 112.695 -57.6172 116.895 -47.4609 116.895 -35.2539 C 116.895 -22.998 113.379 -12.3047 106.982 -4.00391 C 106.543 -3.4668 106.689 -2.7832 107.275 -2.39258 Z M 88.3301 -15.332 C 88.8672 -14.9414 89.5996 -15.0391 89.9902 -15.5762 C 93.75 -20.3613 96.3867 -27.3926 96.3867 -35.2539 C 96.3867 -43.1641 93.75 -50.1465 89.9902 -54.9316 C 89.5996 -55.4688 88.916 -55.6152 88.3301 -55.1758 C 87.793 -54.7363 87.6953 -54.0527 88.1348 -53.3691 C 91.4551 -48.8281 93.9941 -42.5293 93.9941 -35.2539 C 93.9941 -27.8809 91.4062 -21.4355 87.9883 -16.8945 C 87.5977 -16.4062 87.793 -15.7715 88.3301 -15.332 Z"/>
  </g>
  <g id="Black-S" transform="matrix(1 0 0 1 2870.66 696)">
   <path d="M 21.0449 -14.5996 L 31.7871 -14.5996 C 31.9824 -14.5996 32.1289 -14.5996 32.3242 -14.4043 L 47.5098 -0.878906 C 50.3418 1.66016 52.5391 2.83203 55.5176 2.83203 C 60.2051 2.83203 63.8184 -0.78125 63.8184 -5.46875 L 63.8184 -64.9414 C 63.8184 -69.6289 60.2051 -73.2422 55.5176 -73.2422 C 52.7344 -73.2422 50.4395 -72.168 47.5098 -69.5312 L 32.3242 -56.0547 C 32.0801 -55.8594 31.9824 -55.8105 31.7871 -55.8105 L 21.0449 -55.8105 C 13.1348 -55.8105 8.74023 -51.2207 8.74023 -43.0176 L 8.74023 -27.3926 C 8.74023 -19.1895 13.1348 -14.5996 21.0449 -14.5996 Z M 100.439 -2.14844 C 103.809 -0.292969 107.861 -1.12305 109.912 -4.39453 C 115.527 -13.3301 118.652 -23.9258 118.652 -35.2539 C 118.652 -46.582 115.527 -57.1777 109.912 -66.1133 C 107.861 -69.3848 103.809 -70.2148 100.439 -68.3594 C 96.5332 -66.2109 96.1426 -61.6211 98.6328 -57.373 C 102.393 -50.9277 104.492 -43.3105 104.492 -35.2539 C 104.492 -27.1973 102.393 -19.5801 98.6328 -13.1348 C 96.1426 -8.88672 96.5332 -4.29688 100.439 -2.14844 Z M 78.9062 -14.0625 C 82.2266 -12.1094 86.1328 -12.8906 88.0371 -15.5762 C 91.9922 -21.1426 94.2383 -27.9297 94.2383 -35.2539 C 94.2383 -42.5781 91.9922 -49.3652 88.0371 -54.9316 C 86.1328 -57.6172 82.2266 -58.3984 78.9062 -56.4453 C 75.4395 -54.3945 74.5605 -50.293 77.4902 -45.1172 C 79.1504 -42.1875 80.0781 -38.8184 80.0781 -35.2539 C 80.0781 -31.6895 79.1504 -28.3203 77.4902 -25.3906 C 74.5605 -20.2148 75.4395 -16.1133 78.9062 -14.0625 Z M 23.6816 -27.5879 C 23.1445 -27.5879 22.7051 -28.0273 22.7051 -28.5645 L 22.7051 -41.8457 C 22.7051 -42.3828 23.1445 -42.8223 23.6816 -42.8223 L 34.668 -42.8223 C 35.9863 -42.8223 36.8652 -43.1152 37.793 -43.9941 L 48.6816 -54.0039 C 48.8281 -54.1504 49.0234 -54.1992 49.2188 -54.1992 C 49.5605 -54.1992 49.8535 -53.9551 49.8535 -53.5156 L 49.8535 -16.8457 C 49.8535 -16.4062 49.5605 -16.1133 49.2188 -16.1133 C 49.0234 -16.1133 48.8281 -16.2109 48.6816 -16.3574 L 37.793 -26.416 C 36.8652 -27.2949 35.9863 -27.5879 34.668 -27.5879 Z"/>
  </g>
  <g id="Heavy-S" transform="matrix(1 0 0 1 2576.14 696)">
   <path d="M 19.9219 -15.5273 L 30.7617 -15.5273 C 30.957 -15.5273 31.1523 -15.5273 31.3477 -15.332 L 47.1191 -1.2207 C 49.7559 1.12305 51.8555 2.24609 54.5898 2.24609 C 58.8379 2.24609 62.1094 -0.976562 62.1094 -5.22461 L 62.1094 -65.0879 C 62.1094 -69.3359 58.8379 -72.6562 54.5898 -72.6562 C 51.9531 -72.6562 49.9023 -71.6309 47.1191 -69.0918 L 31.3477 -55.127 C 31.1035 -54.9316 30.957 -54.8828 30.7617 -54.8828 L 19.9219 -54.8828 C 12.5 -54.8828 8.44727 -50.6836 8.44727 -42.9199 L 8.44727 -27.4902 C 8.44727 -19.7266 12.5 -15.5273 19.9219 -15.5273 Z M 97.2656 -3.51562 C 100.244 -1.80664 103.809 -2.53906 105.664 -5.46875 C 111.182 -13.9648 114.258 -24.3164 114.258 -35.2539 C 114.258 -46.1914 111.182 -56.5918 105.664 -65.0391 C 103.809 -67.9688 100.244 -68.7012 97.2656 -66.9922 C 93.8965 -65.0879 93.5059 -61.084 95.752 -57.4219 C 99.5605 -51.0742 101.758 -43.3594 101.758 -35.2539 C 101.758 -27.1484 99.5605 -19.4336 95.752 -13.0859 C 93.5059 -9.42383 93.8965 -5.41992 97.2656 -3.51562 Z M 77.1973 -15.0391 C 80.0781 -13.2812 83.5449 -13.9648 85.3027 -16.4551 C 89.0625 -21.6309 91.1621 -28.2715 91.1621 -35.2539 C 91.1621 -42.2363 89.0625 -48.8281 85.3027 -54.0527 C 83.5449 -56.543 80.0781 -57.2266 77.1973 -55.4688 C 74.0723 -53.6133 73.3398 -49.9512 75.9277 -45.5566 C 77.6855 -42.627 78.7109 -39.0137 78.7109 -35.2539 C 78.7109 -31.4941 77.6855 -27.8809 75.9277 -24.9512 C 73.3398 -20.5566 74.0723 -16.8945 77.1973 -15.0391 Z M 22.0215 -27.002 C 21.2891 -27.002 20.752 -27.4902 20.752 -28.2227 L 20.752 -42.1875 C 20.752 -42.8711 21.2891 -43.4082 22.0215 -43.4082 L 33.3984 -43.4082 C 34.668 -43.4082 35.498 -43.6523 36.4258 -44.5312 L 48.6328 -55.7129 C 48.7793 -55.8594 48.9746 -55.9082 49.1699 -55.9082 C 49.5117 -55.9082 49.7559 -55.6641 49.7559 -55.2734 L 49.7559 -15.0879 C 49.7559 -14.6973 49.5117 -14.4531 49.1699 -14.4531 C 48.9746 -14.4531 48.7793 -14.5508 48.6328 -14.6973 L 36.4258 -25.8789 C 35.498 -26.7578 34.668 -27.002 33.3984 -27.002 Z"/>
  </g>
  <g id="Bold-S" transform="matrix(1 0 0 1 2281.92 696)">
   <path d="M 18.6523 -16.6016 L 29.5898 -16.6016 C 29.834 -16.6016 30.0293 -16.5527 30.2246 -16.3086 L 46.6797 -1.66016 C 49.1699 0.585938 51.0742 1.5625 53.5645 1.5625 C 57.3242 1.5625 60.2051 -1.26953 60.2051 -4.98047 L 60.2051 -65.2832 C 60.2051 -69.043 57.3242 -72.0215 53.5156 -72.0215 C 51.123 -72.0215 49.3164 -70.9961 46.6797 -68.6523 L 30.2246 -54.1016 C 30.0293 -53.9062 29.834 -53.8086 29.5898 -53.8086 L 18.6523 -53.8086 C 11.7676 -53.8086 8.10547 -50.0488 8.10547 -42.8223 L 8.10547 -27.5879 C 8.10547 -20.3613 11.7676 -16.6016 18.6523 -16.6016 Z M 93.7012 -4.98047 C 96.2402 -3.51562 99.3164 -4.15039 100.928 -6.64062 C 106.25 -14.6484 109.277 -24.707 109.277 -35.2539 C 109.277 -45.8008 106.299 -55.9082 100.928 -63.8672 C 99.2676 -66.3574 96.2402 -66.9922 93.7012 -65.5273 C 90.918 -63.8672 90.5762 -60.498 92.4805 -57.4219 C 96.4355 -51.2207 98.6816 -43.4082 98.6816 -35.2539 C 98.6816 -27.0996 96.3867 -19.2871 92.4805 -13.0859 C 90.625 -10.0098 90.918 -6.64062 93.7012 -4.98047 Z M 20.1172 -26.3672 C 19.1895 -26.3672 18.6035 -26.9531 18.6035 -27.8809 L 18.6035 -42.5293 C 18.6035 -43.457 19.1895 -44.043 20.1172 -44.043 L 31.9824 -44.043 C 33.1543 -44.043 33.9844 -44.2871 34.9121 -45.1172 L 48.584 -57.5684 C 48.7305 -57.7148 48.9258 -57.8125 49.1211 -57.8125 C 49.4629 -57.8125 49.707 -57.6172 49.707 -57.2266 L 49.707 -13.1836 C 49.707 -12.793 49.4629 -12.5488 49.1211 -12.5488 C 48.9258 -12.5488 48.7305 -12.6465 48.584 -12.793 L 34.9121 -25.293 C 33.9844 -26.123 33.1543 -26.3672 31.9824 -26.3672 Z M 75.2441 -16.1133 C 77.6855 -14.6484 80.6641 -15.1855 82.2754 -17.3828 C 85.7422 -22.2168 87.7441 -28.6133 87.7441 -35.2539 C 87.7441 -41.8945 85.7422 -48.2422 82.2754 -53.125 C 80.6641 -55.3223 77.6855 -55.8594 75.2441 -54.3945 C 72.5586 -52.6855 72.0215 -49.5605 74.1699 -45.9961 C 76.0742 -43.1152 77.1484 -39.209 77.1484 -35.2539 C 77.1484 -31.2988 76.0254 -27.3926 74.1699 -24.4629 C 72.0215 -20.9473 72.5586 -17.8223 75.2441 -16.1133 Z"/>
  </g>
  <g id="Semibold-S" transform="matrix(1 0 0 1 1986.89 696)">
   <path d="M 17.7734 -17.2852 L 28.7598 -17.2852 C 29.0527 -17.2852 29.2969 -17.2363 29.4922 -17.041 L 46.3867 -1.9043 C 48.7305 0.146484 50.5371 1.12305 52.8809 1.12305 C 56.25 1.12305 58.8867 -1.41602 58.8867 -4.83398 L 58.8867 -65.3809 C 58.8867 -68.7988 56.25 -71.5332 52.7832 -71.5332 C 50.5371 -71.5332 48.9258 -70.5566 46.3867 -68.3105 L 29.4922 -53.3691 C 29.248 -53.1738 29.0527 -53.0762 28.7598 -53.0762 L 17.7734 -53.0762 C 11.2305 -53.0762 7.86133 -49.6094 7.86133 -42.7246 L 7.86133 -27.6855 C 7.86133 -20.8008 11.2305 -17.2852 17.7734 -17.2852 Z M 91.2598 -6.05469 C 93.457 -4.6875 96.1914 -5.22461 97.6562 -7.4707 C 102.881 -15.1367 105.908 -25 105.908 -35.2539 C 105.908 -45.5078 102.979 -55.4199 97.6562 -63.0371 C 96.1426 -65.2832 93.457 -65.8203 91.2598 -64.4531 C 88.8672 -63.0371 88.5742 -60.1074 90.2344 -57.4707 C 94.2383 -51.3184 96.582 -43.4082 96.582 -35.2539 C 96.582 -27.0996 94.1895 -19.1895 90.2344 -13.0371 C 88.5742 -10.4004 88.8672 -7.4707 91.2598 -6.05469 Z M 18.7988 -25.9277 C 17.7246 -25.9277 17.0898 -26.5137 17.0898 -27.6367 L 17.0898 -42.7734 C 17.0898 -43.8477 17.7246 -44.4824 18.7988 -44.4824 L 31.0059 -44.4824 C 32.1289 -44.4824 32.9102 -44.6777 33.8379 -45.5566 L 48.5352 -58.8867 C 48.6816 -59.0332 48.877 -59.1309 49.0723 -59.1309 C 49.4141 -59.1309 49.6094 -58.9355 49.6094 -58.5938 L 49.6094 -11.8164 C 49.6094 -11.4746 49.4141 -11.2305 49.0723 -11.2305 C 48.877 -11.2305 48.6816 -11.3281 48.5352 -11.5234 L 33.8379 -24.8535 C 32.9102 -25.6836 32.1289 -25.9277 31.0059 -25.9277 Z M 73.9258 -16.8945 C 76.0254 -15.5762 78.6621 -16.0156 80.1758 -18.0664 C 83.4961 -22.6074 85.3516 -28.8574 85.3516 -35.2539 C 85.3516 -41.6504 83.4961 -47.8516 80.1758 -52.4414 C 78.6621 -54.4922 76.0254 -54.9316 73.9258 -53.6133 C 71.5332 -52.0996 71.0449 -49.2676 72.9492 -46.3379 C 74.9512 -43.457 76.0742 -39.3555 76.0742 -35.2539 C 76.0742 -31.1523 74.9023 -27.0996 72.9492 -24.1699 C 71.0938 -21.1914 71.5332 -18.4082 73.9258 -16.8945 Z"/>
  </g>
  <g id="Medium-S" transform="matrix(1 0 0 1 1691.48 696)">
   <path d="M 17.0898 -17.8711 L 28.125 -17.8711 C 28.418 -17.8711 28.7109 -17.7734 28.9062 -17.5781 L 46.1426 -2.14844 C 48.3887 -0.146484 50.0977 0.78125 52.3438 0.78125 C 55.4688 0.78125 57.8613 -1.5625 57.8613 -4.6875 L 57.8613 -65.4785 C 57.8613 -68.6523 55.4688 -71.1914 52.2461 -71.1914 C 50.0488 -71.1914 48.584 -70.2148 46.1426 -68.0664 L 28.9062 -52.832 C 28.7109 -52.6367 28.418 -52.5391 28.125 -52.5391 L 17.0898 -52.5391 C 10.8398 -52.5391 7.71484 -49.3164 7.71484 -42.6758 L 7.71484 -27.7344 C 7.71484 -21.0938 10.8398 -17.8711 17.0898 -17.8711 Z M 89.3555 -6.83594 C 91.3574 -5.56641 93.8477 -6.05469 95.2148 -8.05664 C 100.342 -15.5273 103.32 -25.1953 103.32 -35.2539 C 103.32 -45.3125 100.439 -55.0781 95.2148 -62.4512 C 93.7988 -64.4531 91.3574 -64.9414 89.3555 -63.6719 C 87.3047 -62.3535 87.0117 -59.7656 88.5742 -57.4707 C 92.627 -51.416 94.9707 -43.457 94.9707 -35.2539 C 94.9707 -27.0508 92.5293 -19.0918 88.5254 -13.0371 C 87.0605 -10.7422 87.3047 -8.1543 89.3555 -6.83594 Z M 17.8223 -25.5859 C 16.6016 -25.5859 15.9668 -26.2207 15.9668 -27.4414 L 15.9668 -42.9688 C 15.9668 -44.1406 16.6016 -44.8242 17.8223 -44.8242 L 30.2734 -44.8242 C 31.3477 -44.8242 32.0801 -45.0195 33.0566 -45.8496 L 48.4863 -59.8633 C 48.6328 -60.0098 48.8281 -60.1074 49.0723 -60.1074 C 49.3652 -60.1074 49.5605 -59.9121 49.5605 -59.6191 L 49.5605 -10.791 C 49.5605 -10.498 49.3652 -10.2539 49.0723 -10.2539 C 48.877 -10.2539 48.6816 -10.3516 48.4863 -10.5469 L 33.0566 -24.5117 C 32.1289 -25.3906 31.3477 -25.5859 30.2734 -25.5859 Z M 72.9004 -17.4316 C 74.7559 -16.2598 77.1973 -16.6504 78.5645 -18.5547 C 81.7383 -22.9004 83.5938 -29.0527 83.5938 -35.2539 C 83.5938 -41.4551 81.7383 -47.5586 78.5645 -51.9531 C 77.1973 -53.8574 74.7559 -54.248 72.9004 -53.0762 C 70.752 -51.6113 70.3613 -49.0723 72.0215 -46.582 C 74.0723 -43.7012 75.2441 -39.4531 75.2441 -35.2539 C 75.2441 -31.0547 74.0234 -26.8066 72.0215 -23.9258 C 70.4102 -21.3867 70.752 -18.8965 72.9004 -17.4316 Z"/>
  </g>
  <g id="Regular-S" transform="matrix(1 0 0 1 1396.45 696)">
   <path d="M 16.2109 -18.5547 L 27.3438 -18.5547 C 27.6367 -18.5547 27.9785 -18.457 28.1738 -18.2617 L 45.8496 -2.39258 C 47.9492 -0.537109 49.5605 0.341797 51.6113 0.341797 C 54.4434 0.341797 56.543 -1.70898 56.543 -4.54102 L 56.543 -65.625 C 56.543 -68.4082 54.4434 -70.752 51.5137 -70.752 C 49.5117 -70.752 48.1934 -69.7754 45.8496 -67.7246 L 28.1738 -52.1484 C 27.9785 -51.9043 27.6367 -51.8066 27.3438 -51.8066 L 16.2109 -51.8066 C 10.3516 -51.8066 7.4707 -48.877 7.4707 -42.5781 L 7.4707 -27.7832 C 7.4707 -21.5332 10.3516 -18.5547 16.2109 -18.5547 Z M 86.9629 -7.86133 C 88.623 -6.73828 90.7715 -7.12891 91.9922 -8.88672 C 97.0215 -16.0156 99.9512 -25.4883 99.9512 -35.2539 C 99.9512 -45.0195 97.1191 -54.5898 91.9922 -61.6211 C 90.7227 -63.3789 88.623 -63.7695 86.9629 -62.6465 C 85.3027 -61.5234 85.0098 -59.375 86.3281 -57.4707 C 90.4785 -51.5137 92.9199 -43.457 92.9199 -35.2539 C 92.9199 -27.002 90.3809 -18.9941 86.3281 -12.9883 C 85.0586 -11.1328 85.3027 -8.98438 86.9629 -7.86133 Z M 16.5527 -25.1465 C 15.1855 -25.1465 14.502 -25.8301 14.502 -27.1973 L 14.502 -43.2129 C 14.502 -44.5312 15.1855 -45.2637 16.5527 -45.2637 L 29.3457 -45.2637 C 30.3223 -45.2637 31.0547 -45.459 31.9824 -46.2891 L 48.4375 -61.1816 C 48.6328 -61.3281 48.8281 -61.4258 49.0234 -61.4258 C 49.3164 -61.4258 49.5117 -61.2305 49.5117 -60.9375 L 49.5117 -9.47266 C 49.5117 -9.17969 49.3164 -8.98438 49.0234 -8.98438 C 48.8281 -8.98438 48.6328 -9.08203 48.4375 -9.22852 L 31.9824 -24.1211 C 31.0547 -24.9512 30.3223 -25.1465 29.3457 -25.1465 Z M 71.582 -18.2129 C 73.0957 -17.1387 75.1953 -17.4805 76.4648 -19.2383 C 79.4922 -23.291 81.25 -29.2969 81.25 -35.2539 C 81.25 -41.2109 79.4922 -47.168 76.4648 -51.2695 C 75.1953 -53.0273 73.0957 -53.3691 71.582 -52.2949 C 69.7266 -50.9766 69.4336 -48.7793 70.8496 -46.9238 C 72.998 -44.043 74.1699 -39.5996 74.1699 -35.2539 C 74.1699 -30.9082 72.9492 -26.5137 70.8496 -23.584 C 69.4824 -21.6797 69.7266 -19.5312 71.582 -18.2129 Z"/>
  </g>
  <g id="Light-S" transform="matrix(1 0 0 1 1100.77 696)">
   <path d="M 14.1113 -19.4824 L 25.6836 -19.4824 C 26.123 -19.4824 26.4648 -19.3359 26.7578 -19.0918 L 44.9707 -2.7832 C 46.6309 -1.26953 48.0469 -0.488281 49.7559 -0.488281 C 52.1973 -0.488281 53.8574 -2.29492 53.8574 -4.6875 L 53.8574 -65.5762 C 53.8574 -67.9688 52.1973 -69.9219 49.707 -69.9219 C 47.9492 -69.9219 46.7773 -69.0918 44.9707 -67.4805 L 26.7578 -51.1719 C 26.4648 -50.9277 26.123 -50.7812 25.6836 -50.7812 L 14.1113 -50.7812 C 9.0332 -50.7812 6.54297 -48.291 6.54297 -42.9199 L 6.54297 -27.3438 C 6.54297 -21.9727 9.0332 -19.4824 14.1113 -19.4824 Z M 14.3066 -24.6094 C 12.6953 -24.6094 12.0117 -25.293 12.0117 -26.9043 L 12.0117 -43.3594 C 12.0117 -44.9707 12.6953 -45.7031 14.3066 -45.7031 L 27.002 -45.7031 C 28.0762 -45.7031 28.8574 -45.8496 29.7852 -46.7285 L 47.168 -62.5 C 47.3633 -62.6953 47.6074 -62.8906 47.8516 -62.8906 C 48.2422 -62.8906 48.4375 -62.6465 48.4375 -62.3047 L 48.4375 -8.20312 C 48.4375 -7.8125 48.2422 -7.56836 47.9004 -7.56836 C 47.6562 -7.56836 47.4121 -7.66602 47.168 -7.95898 L 29.7852 -23.584 C 28.8574 -24.4141 28.0762 -24.6094 27.002 -24.6094 Z M 86.0352 -8.34961 C 87.3535 -7.4707 88.9648 -7.8125 89.8926 -9.13086 C 95.0195 -16.1621 97.9004 -25.4395 97.9004 -35.2539 C 97.9004 -45.0684 95.0684 -54.3945 89.8926 -61.377 C 88.916 -62.6953 87.3535 -63.0371 86.0352 -62.1582 C 84.7656 -61.2793 84.5703 -59.6191 85.5957 -58.1543 C 89.7949 -51.9043 92.4805 -43.8965 92.4805 -35.2539 C 92.4805 -26.6113 89.8926 -18.457 85.5469 -12.3047 C 84.5703 -10.8887 84.7656 -9.22852 86.0352 -8.34961 Z M 70.8496 -18.6523 C 72.0215 -17.8223 73.6328 -18.0664 74.6094 -19.4336 C 77.5879 -23.3887 79.4434 -29.248 79.4434 -35.2539 C 79.4434 -41.3086 77.5879 -47.0703 74.6094 -51.0742 C 73.6328 -52.4414 72.0215 -52.6855 70.8496 -51.8555 C 69.4336 -50.8301 69.1895 -49.1699 70.3125 -47.7051 C 72.5586 -44.6289 74.0234 -39.9902 74.0234 -35.2539 C 74.0234 -30.4688 72.5098 -25.8301 70.2637 -22.7539 C 69.2383 -21.2891 69.4336 -19.6777 70.8496 -18.6523 Z"/>
  </g>
  <g id="Thin-S" transform="matrix(1 0 0 1 805.372 696)">
   <path d="M 11.2793 -20.6543 L 23.4863 -20.6543 C 24.0723 -20.6543 24.5117 -20.5078 24.8535 -20.166 L 43.7988 -3.27148 C 44.9219 -2.29492 45.9961 -1.61133 47.3145 -1.61133 C 49.2188 -1.61133 50.3418 -3.02734 50.3418 -4.83398 L 50.3418 -65.5762 C 50.3418 -67.3828 49.2188 -68.8477 47.2656 -68.8477 C 45.9473 -68.8477 44.9707 -68.1641 43.7988 -67.1387 L 24.8535 -49.9512 C 24.5117 -49.6094 24.0723 -49.4629 23.4863 -49.4629 L 11.2793 -49.4629 C 7.32422 -49.4629 5.37109 -47.5098 5.37109 -43.4082 L 5.37109 -26.709 C 5.37109 -22.6074 7.32422 -20.6543 11.2793 -20.6543 Z M 11.377 -23.877 C 9.42383 -23.877 8.69141 -24.6094 8.69141 -26.5625 L 8.69141 -43.5547 C 8.69141 -45.5078 9.42383 -46.2402 11.377 -46.2402 L 23.9746 -46.2402 C 25.1465 -46.2402 25.9277 -46.4355 26.9043 -47.3145 L 45.4102 -64.2578 C 45.7031 -64.502 45.9961 -64.7461 46.3867 -64.7461 C 46.7773 -64.7461 47.0215 -64.502 47.0215 -64.1113 L 47.0215 -6.44531 C 47.0215 -6.00586 46.8262 -5.71289 46.3867 -5.71289 C 46.1426 -5.71289 45.8496 -5.85938 45.459 -6.20117 L 26.9043 -22.8516 C 25.9766 -23.6816 25.1465 -23.877 23.9746 -23.877 Z M 84.8633 -9.0332 C 85.6445 -8.49609 86.6211 -8.69141 87.1582 -9.47266 C 92.3828 -16.3574 95.2637 -25.3418 95.2637 -35.2539 C 95.2637 -45.166 92.4316 -54.1504 87.1582 -61.0352 C 86.5723 -61.8164 85.6445 -62.0117 84.8633 -61.4746 C 84.0332 -60.9375 83.9844 -59.9609 84.5703 -59.0332 C 88.916 -52.3926 91.9434 -44.4336 91.9434 -35.2539 C 91.9434 -26.0254 89.2578 -17.7246 84.5215 -11.377 C 83.9355 -10.5469 84.0332 -9.57031 84.8633 -9.0332 Z M 69.873 -19.2383 C 70.6055 -18.7012 71.582 -18.8965 72.168 -19.6777 C 75.0977 -23.4863 77.0996 -29.1504 77.0996 -35.2539 C 77.0996 -41.4062 75.0977 -46.9727 72.168 -50.8301 C 71.582 -51.6113 70.6055 -51.8066 69.873 -51.2695 C 69.043 -50.6836 68.8965 -49.6582 69.5801 -48.7305 C 72.0215 -45.3613 73.7793 -40.5762 73.7793 -35.2539 C 73.7793 -29.8828 71.9727 -25 69.4336 -21.6309 C 68.8965 -20.8008 69.043 -19.8242 69.873 -19.2383 Z"/>
  </g>
  <g id="Ultralight-S" transform="matrix(1 0 0 1 509.369 696)">
   <path d="M 9.86328 -21.2891 L 22.3145 -21.2891 C 22.998 -21.2891 23.4863 -21.0938 23.9258 -20.7031 L 43.2129 -3.56445 C 43.9941 -2.83203 44.9219 -2.19727 46.0449 -2.19727 C 47.6562 -2.19727 48.5352 -3.41797 48.5352 -4.98047 L 48.5352 -65.5273 C 48.5352 -67.041 47.6562 -68.3105 46.0449 -68.3105 C 44.9219 -68.3105 43.9941 -67.6758 43.2129 -66.9434 L 23.9258 -49.3164 C 23.4863 -48.9258 22.998 -48.7305 22.3145 -48.7305 L 9.86328 -48.7305 C 6.39648 -48.7305 4.78516 -47.1191 4.78516 -43.6523 L 4.78516 -26.3672 C 4.78516 -22.9492 6.39648 -21.2891 9.86328 -21.2891 Z M 9.86328 -23.4863 C 7.76367 -23.4863 6.98242 -24.2676 6.98242 -26.3672 L 6.98242 -43.6523 C 6.98242 -45.8008 7.76367 -46.582 9.86328 -46.582 L 22.3633 -46.582 C 23.6328 -46.582 24.4141 -46.7285 25.3906 -47.6562 L 44.5312 -65.1855 C 44.873 -65.4785 45.166 -65.7227 45.6055 -65.7227 C 46.0449 -65.7227 46.2891 -65.4785 46.2891 -65.0391 L 46.2891 -5.56641 C 46.2891 -5.07812 46.0449 -4.73633 45.6543 -4.73633 C 45.3613 -4.73633 45.0684 -4.88281 44.5801 -5.32227 L 25.3906 -22.4609 C 24.4629 -23.291 23.6328 -23.4863 22.3633 -23.4863 Z M 84.2285 -9.375 C 84.7656 -9.0332 85.4004 -9.17969 85.791 -9.66797 C 91.0156 -16.4551 93.8477 -25.293 93.8477 -35.2539 C 93.8477 -45.2148 91.0156 -54.0527 85.791 -60.8398 C 85.4004 -61.3281 84.7656 -61.4746 84.2285 -61.1328 C 83.6914 -60.7422 83.6426 -60.1074 84.0332 -59.5215 C 88.4277 -52.6855 91.6504 -44.7266 91.6504 -35.2539 C 91.6504 -25.7324 88.9648 -17.3828 83.9844 -10.8887 C 83.5938 -10.4004 83.6914 -9.76562 84.2285 -9.375 Z M 69.3359 -19.5801 C 69.8242 -19.1895 70.5078 -19.2871 70.8984 -19.7754 C 73.8281 -23.584 75.8789 -29.1016 75.8789 -35.2539 C 75.8789 -41.4551 73.8281 -46.9238 70.8984 -50.7324 C 70.5078 -51.2207 69.873 -51.3184 69.3359 -50.9277 C 68.8477 -50.5371 68.75 -49.9023 69.1895 -49.2676 C 71.7285 -45.752 73.6816 -40.8691 73.6816 -35.2539 C 73.6816 -29.541 71.6797 -24.5605 69.043 -21.0449 C 68.7012 -20.5566 68.8477 -19.9707 69.3359 -19.5801 Z"/>
  </g>
 </g>
</svg>
