<?xml version="1.0" encoding="UTF-8"?>
<!--Generator: Apple Native CoreSVG 123-->
<!DOCTYPE svg
PUBLIC "-//W3C//DTD SVG 1.1//EN"
       "http://www.w3.org/Graphics/SVG/1.1/DTD/svg11.dtd">
<svg version="1.1" xmlns="http://www.w3.org/2000/svg" xmlns:xlink="http://www.w3.org/1999/xlink" width="3300" height="2200">
 <!--glyph: "uni1002A2.medium", point size: 100.000000, font version: "Version 15.0d7e11", template writer version: "5"-->
 <g id="Notes">
  <rect height="2200" id="artboard" style="fill:white;opacity:1" width="3300" x="0" y="0"/>
  <line id="" style="fill:none;stroke:black;opacity:1;stroke-width:0.5;" x1="263" x2="3036" y1="292" y2="292"/>
  <text style="stroke:none;fill:black;font-family:-apple-system,&quot;SF Pro Display&quot;,&quot;SF Pro Text&quot;,Helvetica,sans-serif;font-weight:bold;" transform="matrix(1 0 0 1 263 322)">Weight/Scale Variations</text>
  <text style="stroke:none;fill:black;font-family:-apple-system,&quot;SF Pro Display&quot;,&quot;SF Pro Text&quot;,Helvetica,sans-serif;text-anchor:middle;" transform="matrix(1 0 0 1 559.711 322)">Ultralight</text>
  <text style="stroke:none;fill:black;font-family:-apple-system,&quot;SF Pro Display&quot;,&quot;SF Pro Text&quot;,Helvetica,sans-serif;text-anchor:middle;" transform="matrix(1 0 0 1 856.422 322)">Thin</text>
  <text style="stroke:none;fill:black;font-family:-apple-system,&quot;SF Pro Display&quot;,&quot;SF Pro Text&quot;,Helvetica,sans-serif;text-anchor:middle;" transform="matrix(1 0 0 1 1153.13 322)">Light</text>
  <text style="stroke:none;fill:black;font-family:-apple-system,&quot;SF Pro Display&quot;,&quot;SF Pro Text&quot;,Helvetica,sans-serif;text-anchor:middle;" transform="matrix(1 0 0 1 1449.84 322)">Regular</text>
  <text style="stroke:none;fill:black;font-family:-apple-system,&quot;SF Pro Display&quot;,&quot;SF Pro Text&quot;,Helvetica,sans-serif;text-anchor:middle;" transform="matrix(1 0 0 1 1746.56 322)">Medium</text>
  <text style="stroke:none;fill:black;font-family:-apple-system,&quot;SF Pro Display&quot;,&quot;SF Pro Text&quot;,Helvetica,sans-serif;text-anchor:middle;" transform="matrix(1 0 0 1 2043.27 322)">Semibold</text>
  <text style="stroke:none;fill:black;font-family:-apple-system,&quot;SF Pro Display&quot;,&quot;SF Pro Text&quot;,Helvetica,sans-serif;text-anchor:middle;" transform="matrix(1 0 0 1 2339.98 322)">Bold</text>
  <text style="stroke:none;fill:black;font-family:-apple-system,&quot;SF Pro Display&quot;,&quot;SF Pro Text&quot;,Helvetica,sans-serif;text-anchor:middle;" transform="matrix(1 0 0 1 2636.69 322)">Heavy</text>
  <text style="stroke:none;fill:black;font-family:-apple-system,&quot;SF Pro Display&quot;,&quot;SF Pro Text&quot;,Helvetica,sans-serif;text-anchor:middle;" transform="matrix(1 0 0 1 2933.4 322)">Black</text>
  <line id="" style="fill:none;stroke:black;opacity:1;stroke-width:0.5;" x1="263" x2="3036" y1="1903" y2="1903"/>
  <g id="" transform="matrix(1 0 0 1 263 1933)">
   <path d="M 9.24805 0.830078 C 13.5547 0.830078 17.1387 -2.74414 17.1387 -7.05078 C 17.1387 -11.3574 13.5449 -14.9316 9.23828 -14.9316 C 4.94141 -14.9316 1.36719 -11.3574 1.36719 -7.05078 C 1.36719 -2.74414 4.95117 0.830078 9.24805 0.830078 Z M 9.24805 -0.654297 C 5.70312 -0.654297 2.87109 -3.49609 2.87109 -7.05078 C 2.87109 -10.6055 5.69336 -13.4473 9.23828 -13.4473 C 12.793 -13.4473 15.6348 -10.6055 15.6445 -7.05078 C 15.6543 -3.49609 12.8027 -0.654297 9.24805 -0.654297 Z M 9.22852 -3.42773 C 9.69727 -3.42773 9.9707 -3.74023 9.9707 -4.25781 L 9.9707 -6.31836 L 12.1973 -6.31836 C 12.6953 -6.31836 13.0371 -6.57227 13.0371 -7.04102 C 13.0371 -7.51953 12.7148 -7.7832 12.1973 -7.7832 L 9.9707 -7.7832 L 9.9707 -10.0098 C 9.9707 -10.5273 9.69727 -10.8496 9.22852 -10.8496 C 8.75977 -10.8496 8.50586 -10.5078 8.50586 -10.0098 L 8.50586 -7.7832 L 6.29883 -7.7832 C 5.78125 -7.7832 5.44922 -7.51953 5.44922 -7.04102 C 5.44922 -6.57227 5.80078 -6.31836 6.29883 -6.31836 L 8.50586 -6.31836 L 8.50586 -4.25781 C 8.50586 -3.75977 8.75977 -3.42773 9.22852 -3.42773 Z"/>
  </g>
  <g id="" transform="matrix(1 0 0 1 281.506 1933)">
   <path d="M 11.709 2.91016 C 17.1582 2.91016 21.6699 -1.60156 21.6699 -7.05078 C 21.6699 -12.4902 17.1484 -17.0117 11.6992 -17.0117 C 6.25977 -17.0117 1.74805 -12.4902 1.74805 -7.05078 C 1.74805 -1.60156 6.26953 2.91016 11.709 2.91016 Z M 11.709 1.25 C 7.09961 1.25 3.41797 -2.44141 3.41797 -7.05078 C 3.41797 -11.6504 7.08984 -15.3516 11.6992 -15.3516 C 16.3086 -15.3516 20 -11.6504 20.0098 -7.05078 C 20.0195 -2.44141 16.3184 1.25 11.709 1.25 Z M 11.6895 -2.41211 C 12.207 -2.41211 12.5195 -2.77344 12.5195 -3.33984 L 12.5195 -6.23047 L 15.5762 -6.23047 C 16.123 -6.23047 16.5039 -6.51367 16.5039 -7.03125 C 16.5039 -7.55859 16.1426 -7.86133 15.5762 -7.86133 L 12.5195 -7.86133 L 12.5195 -10.9277 C 12.5195 -11.5039 12.207 -11.8555 11.6895 -11.8555 C 11.1719 -11.8555 10.8789 -11.4844 10.8789 -10.9277 L 10.8789 -7.86133 L 7.83203 -7.86133 C 7.26562 -7.86133 6.89453 -7.55859 6.89453 -7.03125 C 6.89453 -6.51367 7.28516 -6.23047 7.83203 -6.23047 L 10.8789 -6.23047 L 10.8789 -3.33984 C 10.8789 -2.79297 11.1719 -2.41211 11.6895 -2.41211 Z"/>
  </g>
  <g id="" transform="matrix(1 0 0 1 304.924 1933)">
   <path d="M 14.9707 5.67383 C 21.9336 5.67383 27.6953 -0.078125 27.6953 -7.04102 C 27.6953 -14.0039 21.9238 -19.7559 14.9609 -19.7559 C 8.00781 -19.7559 2.25586 -14.0039 2.25586 -7.04102 C 2.25586 -0.078125 8.01758 5.67383 14.9707 5.67383 Z M 14.9707 3.85742 C 8.93555 3.85742 4.08203 -1.00586 4.08203 -7.04102 C 4.08203 -13.0762 8.92578 -17.9395 14.9609 -17.9395 C 21.0059 -17.9395 25.8594 -13.0762 25.8691 -7.04102 C 25.8789 -1.00586 21.0156 3.85742 14.9707 3.85742 Z M 14.9512 -1.06445 C 15.5176 -1.06445 15.8691 -1.45508 15.8691 -2.06055 L 15.8691 -6.13281 L 20.1074 -6.13281 C 20.6934 -6.13281 21.1133 -6.46484 21.1133 -7.02148 C 21.1133 -7.59766 20.7227 -7.93945 20.1074 -7.93945 L 15.8691 -7.93945 L 15.8691 -12.1875 C 15.8691 -12.8027 15.5176 -13.1934 14.9512 -13.1934 C 14.3848 -13.1934 14.0625 -12.7832 14.0625 -12.1875 L 14.0625 -7.93945 L 9.83398 -7.93945 C 9.21875 -7.93945 8.80859 -7.59766 8.80859 -7.02148 C 8.80859 -6.46484 9.23828 -6.13281 9.83398 -6.13281 L 14.0625 -6.13281 L 14.0625 -2.06055 C 14.0625 -1.47461 14.3848 -1.06445 14.9512 -1.06445 Z"/>
  </g>
  <text style="stroke:none;fill:black;font-family:-apple-system,&quot;SF Pro Display&quot;,&quot;SF Pro Text&quot;,Helvetica,sans-serif;font-weight:bold;" transform="matrix(1 0 0 1 263 1953)">Design Variations</text>
  <text style="stroke:none;fill:black;font-family:-apple-system,&quot;SF Pro Display&quot;,&quot;SF Pro Text&quot;,Helvetica,sans-serif;" transform="matrix(1 0 0 1 263 1971)">Symbols are supported in up to nine weights and three scales.</text>
  <text style="stroke:none;fill:black;font-family:-apple-system,&quot;SF Pro Display&quot;,&quot;SF Pro Text&quot;,Helvetica,sans-serif;" transform="matrix(1 0 0 1 263 1989)">For optimal layout with text and other symbols, vertically align</text>
  <text style="stroke:none;fill:black;font-family:-apple-system,&quot;SF Pro Display&quot;,&quot;SF Pro Text&quot;,Helvetica,sans-serif;" transform="matrix(1 0 0 1 263 2007)">symbols with the adjacent text.</text>
  <rect height="14" id="" style="fill:#00AEEF;stroke:none;opacity:0.4;" width="3" x="776" y="1919"/>
  <g id="" transform="matrix(1 0 0 1 779 1933)">
   <path d="M 10.5273 0 L 12.373 0 L 7.17773 -14.0918 L 5.43945 -14.0918 L 0.244141 0 L 2.08984 0 L 3.50586 -4.0332 L 9.11133 -4.0332 Z M 6.2793 -11.9531 L 6.33789 -11.9531 L 8.59375 -5.52734 L 4.02344 -5.52734 Z"/>
  </g>
  <rect height="14" id="" style="fill:#00AEEF;stroke:none;opacity:0.4;" width="3" x="791.617" y="1919"/>
  <text style="stroke:none;fill:black;font-family:-apple-system,&quot;SF Pro Display&quot;,&quot;SF Pro Text&quot;,Helvetica,sans-serif;font-weight:bold;" transform="matrix(1 0 0 1 776 1953)">Margins</text>
  <text style="stroke:none;fill:black;font-family:-apple-system,&quot;SF Pro Display&quot;,&quot;SF Pro Text&quot;,Helvetica,sans-serif;" transform="matrix(1 0 0 1 776 1971)">Leading and trailing margins on the left and right side of each symbol</text>
  <text style="stroke:none;fill:black;font-family:-apple-system,&quot;SF Pro Display&quot;,&quot;SF Pro Text&quot;,Helvetica,sans-serif;" transform="matrix(1 0 0 1 776 1989)">can be adjusted by modifying the width of the blue rectangles.</text>
  <text style="stroke:none;fill:black;font-family:-apple-system,&quot;SF Pro Display&quot;,&quot;SF Pro Text&quot;,Helvetica,sans-serif;" transform="matrix(1 0 0 1 776 2007)">Modifications are automatically applied proportionally to all</text>
  <text style="stroke:none;fill:black;font-family:-apple-system,&quot;SF Pro Display&quot;,&quot;SF Pro Text&quot;,Helvetica,sans-serif;" transform="matrix(1 0 0 1 776 2025)">scales and weights.</text>
  <g id="" transform="matrix(1 0 0 1 1289 1933)">
   <path d="M 2.83203 3.11523 L 4.375 4.6582 C 5.22461 5.48828 6.19141 5.41992 7.06055 4.46289 L 17.2754 -6.66016 C 17.7051 -6.36719 18.0957 -6.37695 18.5645 -6.47461 L 19.6094 -6.68945 L 20.3027 -5.99609 L 20.2539 -5.47852 C 20.1855 -4.95117 20.3516 -4.53125 20.8496 -4.0332 L 21.6602 -3.22266 C 22.168 -2.71484 22.8223 -2.68555 23.3008 -3.16406 L 26.5527 -6.41602 C 27.0312 -6.89453 27.0117 -7.54883 26.5039 -8.05664 L 25.6836 -8.87695 C 25.1855 -9.375 24.7754 -9.55078 24.2383 -9.47266 L 23.7109 -9.41406 L 23.0566 -10.0781 L 23.3398 -11.2207 C 23.4863 -11.7871 23.3398 -12.2559 22.7148 -12.8613 L 20.3027 -15.2539 C 16.7578 -18.7793 12.2266 -18.6719 9.11133 -15.5371 C 8.69141 -15.1074 8.64258 -14.5215 8.91602 -14.0918 C 9.15039 -13.7207 9.62891 -13.4961 10.2734 -13.6621 C 11.7871 -14.043 13.3008 -13.9258 14.7852 -12.9199 L 14.1602 -11.3379 C 13.9258 -10.752 13.9453 -10.2734 14.1797 -9.83398 L 3.01758 0.439453 C 2.08008 1.30859 1.97266 2.25586 2.83203 3.11523 Z M 10.6738 -15.1465 C 13.3398 -17.1387 16.6504 -16.8262 19.0527 -14.4141 L 21.6797 -11.8066 C 21.9141 -11.5723 21.9434 -11.3867 21.8848 -11.0938 L 21.5039 -9.53125 L 23.0762 -7.95898 L 24.043 -8.04688 C 24.3262 -8.07617 24.4141 -8.05664 24.6387 -7.83203 L 25.2637 -7.20703 L 22.5098 -4.46289 L 21.8848 -5.07812 C 21.6602 -5.30273 21.6406 -5.40039 21.6699 -5.68359 L 21.7578 -6.64062 L 20.1953 -8.20312 L 18.5742 -7.89062 C 18.291 -7.83203 18.1445 -7.83203 17.9102 -8.07617 L 15.7324 -10.2539 C 15.5078 -10.4883 15.4785 -10.625 15.6055 -10.9473 L 16.5527 -13.2227 C 14.9512 -14.7559 12.8418 -15.6055 10.8008 -14.9512 C 10.7129 -14.9219 10.6445 -14.9414 10.6152 -14.9805 C 10.5859 -15.0293 10.5859 -15.0781 10.6738 -15.1465 Z M 4.10156 2.41211 C 3.61328 1.91406 3.78906 1.61133 4.12109 1.30859 L 15.0781 -8.80859 L 16.3086 -7.57812 L 6.15234 3.34961 C 5.84961 3.68164 5.46875 3.7793 5.06836 3.37891 Z"/>
  </g>
  <text style="stroke:none;fill:black;font-family:-apple-system,&quot;SF Pro Display&quot;,&quot;SF Pro Text&quot;,Helvetica,sans-serif;font-weight:bold;" transform="matrix(1 0 0 1 1289 1953)">Exporting</text>
  <text style="stroke:none;fill:black;font-family:-apple-system,&quot;SF Pro Display&quot;,&quot;SF Pro Text&quot;,Helvetica,sans-serif;" transform="matrix(1 0 0 1 1289 1971)">Symbols should be outlined when exporting to ensure the</text>
  <text style="stroke:none;fill:black;font-family:-apple-system,&quot;SF Pro Display&quot;,&quot;SF Pro Text&quot;,Helvetica,sans-serif;" transform="matrix(1 0 0 1 1289 1989)">design is preserved when submitting to Xcode.</text>
  <text id="template-version" style="stroke:none;fill:black;font-family:-apple-system,&quot;SF Pro Display&quot;,&quot;SF Pro Text&quot;,Helvetica,sans-serif;text-anchor:end;" transform="matrix(1 0 0 1 3036 1933)">Template v.1.0</text>
  <text style="stroke:none;fill:black;font-family:-apple-system,&quot;SF Pro Display&quot;,&quot;SF Pro Text&quot;,Helvetica,sans-serif;text-anchor:end;" transform="matrix(1 0 0 1 3036 1951)">Generated from speaker.slash</text>
  <text style="stroke:none;fill:black;font-family:-apple-system,&quot;SF Pro Display&quot;,&quot;SF Pro Text&quot;,Helvetica,sans-serif;text-anchor:end;" transform="matrix(1 0 0 1 3036 1969)">Typeset at 100 points</text>
  <text style="stroke:none;fill:black;font-family:-apple-system,&quot;SF Pro Display&quot;,&quot;SF Pro Text&quot;,Helvetica,sans-serif;" transform="matrix(1 0 0 1 263 726)">Small</text>
  <text style="stroke:none;fill:black;font-family:-apple-system,&quot;SF Pro Display&quot;,&quot;SF Pro Text&quot;,Helvetica,sans-serif;" transform="matrix(1 0 0 1 263 1156)">Medium</text>
  <text style="stroke:none;fill:black;font-family:-apple-system,&quot;SF Pro Display&quot;,&quot;SF Pro Text&quot;,Helvetica,sans-serif;" transform="matrix(1 0 0 1 263 1586)">Large</text>
 </g>
 <g id="Guides">
  <g id="H-reference" style="fill:#27AAE1;stroke:none;" transform="matrix(1 0 0 1 339 696)">
   <path d="M 54.9316 0 L 57.666 0 L 30.5664 -70.459 L 28.0762 -70.459 L 0.976562 0 L 3.66211 0 L 12.9395 -24.4629 L 45.7031 -24.4629 Z M 29.1992 -67.0898 L 29.4434 -67.0898 L 44.8242 -26.709 L 13.8184 -26.709 Z"/>
  </g>
  <line id="Baseline-S" style="fill:none;stroke:#27AAE1;opacity:1;stroke-width:0.577;" x1="263" x2="3036" y1="696" y2="696"/>
  <line id="Capline-S" style="fill:none;stroke:#27AAE1;opacity:1;stroke-width:0.577;" x1="263" x2="3036" y1="625.541" y2="625.541"/>
  <g id="H-reference" style="fill:#27AAE1;stroke:none;" transform="matrix(1 0 0 1 339 1126)">
   <path d="M 54.9316 0 L 57.666 0 L 30.5664 -70.459 L 28.0762 -70.459 L 0.976562 0 L 3.66211 0 L 12.9395 -24.4629 L 45.7031 -24.4629 Z M 29.1992 -67.0898 L 29.4434 -67.0898 L 44.8242 -26.709 L 13.8184 -26.709 Z"/>
  </g>
  <line id="Baseline-M" style="fill:none;stroke:#27AAE1;opacity:1;stroke-width:0.577;" x1="263" x2="3036" y1="1126" y2="1126"/>
  <line id="Capline-M" style="fill:none;stroke:#27AAE1;opacity:1;stroke-width:0.577;" x1="263" x2="3036" y1="1055.54" y2="1055.54"/>
  <g id="H-reference" style="fill:#27AAE1;stroke:none;" transform="matrix(1 0 0 1 339 1556)">
   <path d="M 54.9316 0 L 57.666 0 L 30.5664 -70.459 L 28.0762 -70.459 L 0.976562 0 L 3.66211 0 L 12.9395 -24.4629 L 45.7031 -24.4629 Z M 29.1992 -67.0898 L 29.4434 -67.0898 L 44.8242 -26.709 L 13.8184 -26.709 Z"/>
  </g>
  <line id="Baseline-L" style="fill:none;stroke:#27AAE1;opacity:1;stroke-width:0.577;" x1="263" x2="3036" y1="1556" y2="1556"/>
  <line id="Capline-L" style="fill:none;stroke:#27AAE1;opacity:1;stroke-width:0.577;" x1="263" x2="3036" y1="1485.54" y2="1485.54"/>
  <rect height="119.336" id="left-margin" style="fill:#00AEEF;stroke:none;opacity:0.4;" width="9.92432" x="1395.45" y="1030.79"/>
  <rect height="119.336" id="right-margin" style="fill:#00AEEF;stroke:none;opacity:0.4;" width="7.72087" x="1496.52" y="1030.79"/>
 </g>
 <g id="Symbols">
  <g id="Black-L" transform="matrix(1 0 0 1 2856.06 1556)">
   <path d="M 135.254 28.418 C 137.5 30.6152 141.211 30.6641 143.359 28.418 C 145.557 26.1719 145.605 22.5586 143.359 20.2637 L 24.9023 -98.0957 C 22.6562 -100.342 18.9453 -100.342 16.6992 -98.0957 C 14.502 -95.9473 14.502 -92.1387 16.6992 -89.9902 Z M 114.453 -21.6797 L 114.502 -84.4727 C 114.502 -91.3574 109.18 -96.7773 102.246 -96.7773 C 97.9492 -96.7773 94.5801 -95.0684 89.9414 -90.918 L 66.2109 -69.9219 L 79.0527 -56.9824 L 92.5781 -69.2871 C 92.8223 -69.5312 93.1152 -69.6289 93.457 -69.6289 C 93.9941 -69.6289 94.4336 -69.2383 94.4336 -68.6035 L 94.4336 -41.6992 Z M 45.0195 -2.97852 L 62.9395 -2.97852 C 63.2812 -2.97852 63.5742 -2.92969 63.916 -2.58789 L 89.9902 20.7031 C 94.3848 24.6094 97.7539 26.416 102.295 26.416 C 107.275 26.416 111.426 23.6328 113.428 19.2871 L 92.3828 -1.70898 L 72.1191 -19.8242 C 70.6543 -21.1914 69.4336 -21.582 67.3828 -21.582 L 48.3398 -21.582 C 47.1191 -21.582 46.2891 -22.4121 46.2891 -23.6816 L 46.2891 -47.3145 L 31.2012 -62.4512 C 27.9785 -59.1797 26.2695 -54.248 26.2695 -47.8516 L 26.2695 -22.5586 C 26.2695 -9.81445 32.8613 -2.97852 45.0195 -2.97852 Z"/>
  </g>
  <g id="Heavy-L" transform="matrix(1 0 0 1 2561.47 1556)">
   <path d="M 131.494 27.8809 C 133.594 29.9316 137.061 29.9805 139.062 27.8809 C 141.113 25.7812 141.162 22.4121 139.062 20.3125 L 23.5352 -95.166 C 21.4355 -97.2656 18.0176 -97.2656 15.8691 -95.166 C 13.8672 -93.1152 13.8672 -89.5996 15.8691 -87.5488 Z M 111.182 -20.2637 L 111.23 -84.668 C 111.23 -90.8203 106.543 -95.7031 100.244 -95.7031 C 96.3379 -95.7031 93.3105 -94.0918 89.0625 -90.2832 L 63.7695 -67.7734 L 75 -56.4941 L 91.8945 -71.9238 C 92.1875 -72.168 92.5293 -72.3145 92.8711 -72.3145 C 93.4082 -72.3145 93.8477 -71.9238 93.8477 -71.2891 L 93.8477 -37.5488 Z M 42.7246 -4.49219 L 60.8887 -4.49219 C 61.377 -4.49219 61.7188 -4.39453 62.1094 -4.05273 L 89.1113 20.0684 C 93.1152 23.6328 96.2402 25.293 100.342 25.293 C 104.688 25.293 108.398 22.9004 110.205 19.043 L 92.5293 1.51367 L 69.4336 -18.9453 C 67.9688 -20.3125 66.8457 -20.6543 64.8926 -20.6543 L 45.3125 -20.6543 C 43.75 -20.6543 42.8223 -21.582 42.8223 -23.1445 L 42.8223 -47.8027 L 29.7852 -61.084 C 26.9531 -58.0078 25.4883 -53.5156 25.4883 -47.8027 L 25.4883 -22.4609 C 25.4883 -10.6934 31.4941 -4.49219 42.7246 -4.49219 Z"/>
  </g>
  <g id="Bold-L" transform="matrix(1 0 0 1 2267.18 1556)">
   <path d="M 107.52 -18.6035 L 107.568 -84.8633 C 107.568 -90.2344 103.564 -94.5312 98.0957 -94.5312 C 94.5312 -94.5312 91.8945 -92.9688 88.1348 -89.5996 L 61.0352 -65.4297 L 70.459 -55.957 L 91.1621 -74.8535 C 91.5039 -75.1465 91.8457 -75.293 92.2363 -75.293 C 92.7734 -75.293 93.2129 -74.9512 93.2129 -74.3164 L 93.2129 -32.959 Z M 127.246 27.3438 C 129.199 29.248 132.373 29.248 134.277 27.3438 C 136.182 25.3418 136.23 22.2656 134.277 20.3125 L 22.0703 -91.8457 C 20.1172 -93.75 16.9434 -93.7988 14.9902 -91.8457 C 13.1348 -89.9414 13.1348 -86.7188 14.9902 -84.8145 Z M 40.1367 -6.20117 L 58.6426 -6.20117 C 59.2285 -6.20117 59.668 -6.05469 60.0586 -5.66406 L 88.1348 19.3848 C 91.6992 22.5586 94.4824 24.1211 98.1445 24.1211 C 101.807 24.1211 104.932 22.1191 106.543 18.7988 L 92.6758 5.12695 L 66.4551 -17.9688 C 64.9902 -19.2871 63.9648 -19.5801 62.0605 -19.5801 L 41.9434 -19.5801 C 39.9902 -19.5801 38.9648 -20.6055 38.9648 -22.5586 L 38.9648 -48.3398 L 28.2227 -59.5703 C 25.8301 -56.6406 24.6582 -52.7344 24.6582 -47.7539 L 24.6582 -22.3145 C 24.6582 -11.6699 29.9805 -6.20117 40.1367 -6.20117 Z"/>
  </g>
  <g id="Semibold-L" transform="matrix(1 0 0 1 1972.1 1556)">
   <path d="M 105.029 -17.4805 L 105.029 -85.0098 C 105.029 -89.7949 101.514 -93.7012 96.582 -93.7012 C 93.2617 -93.7012 90.918 -92.1875 87.4512 -89.1113 L 59.1309 -63.8184 L 67.2852 -55.5664 L 90.6738 -76.8555 C 91.0156 -77.1484 91.3574 -77.3926 91.7969 -77.3926 C 92.3828 -77.3926 92.7734 -77.002 92.7734 -76.416 L 92.7734 -29.7363 Z M 124.365 26.9043 C 126.172 28.7598 129.199 28.7598 130.957 26.9043 C 132.764 25.0977 132.812 22.168 130.957 20.3125 L 21.0449 -89.5508 C 19.2383 -91.3574 16.2109 -91.4062 14.3555 -89.5508 C 12.5977 -87.793 12.5977 -84.7168 14.3555 -82.959 Z M 38.3301 -7.37305 L 57.1289 -7.37305 C 57.7148 -7.37305 58.2031 -7.22656 58.6426 -6.78711 L 87.4512 18.9453 C 90.6738 21.8262 93.3105 23.2422 96.6309 23.2422 C 99.8535 23.2422 102.588 21.582 104.053 18.6035 L 92.7734 7.61719 L 64.4043 -17.2852 C 62.9395 -18.6035 61.9629 -18.8477 60.1074 -18.8477 L 39.6484 -18.8477 C 37.4023 -18.8477 36.3281 -19.9707 36.3281 -22.168 L 36.3281 -48.6816 L 27.1484 -58.4961 C 25.0488 -55.7617 24.0723 -52.1973 24.0723 -47.7051 L 24.0723 -22.2656 C 24.0723 -12.3535 28.9062 -7.37305 38.3301 -7.37305 Z"/>
  </g>
  <g id="Medium-L" transform="matrix(1 0 0 1 1676.63 1556)">
   <path d="M 103.125 -16.6504 L 103.125 -85.1074 C 103.125 -89.502 99.9512 -93.0664 95.4102 -93.0664 C 92.334 -93.0664 90.1855 -91.6504 86.9629 -88.7695 L 57.666 -62.5977 L 64.9414 -55.2734 L 90.2832 -78.3691 C 90.625 -78.7109 91.0156 -78.9551 91.4551 -78.9551 C 92.041 -78.9551 92.4316 -78.5645 92.4316 -77.9785 L 92.4316 -27.3438 Z M 122.168 26.6113 C 123.926 28.3691 126.758 28.3691 128.467 26.6113 C 130.176 24.8535 130.176 22.0703 128.467 20.3125 L 20.2637 -87.793 C 18.5547 -89.5508 15.6738 -89.5996 13.916 -87.793 C 12.207 -86.1328 12.207 -83.2031 13.916 -81.543 Z M 37.0117 -8.30078 L 55.9082 -8.30078 C 56.5918 -8.30078 57.1289 -8.10547 57.6172 -7.66602 L 86.9629 18.6035 C 89.9414 21.2891 92.3828 22.6074 95.5078 22.6074 C 98.3398 22.6074 100.781 21.1426 102.148 18.457 L 92.8711 9.47266 L 62.8418 -16.7969 C 61.4258 -18.0664 60.4492 -18.3105 58.5938 -18.3105 L 37.8906 -18.3105 C 35.4492 -18.3105 34.3262 -19.4336 34.3262 -21.875 L 34.3262 -48.9746 L 26.3184 -57.7148 C 24.4629 -55.0781 23.6328 -51.7578 23.6328 -47.6562 L 23.6328 -22.2168 C 23.6328 -12.8418 28.0762 -8.30078 37.0117 -8.30078 Z"/>
  </g>
  <g id="Regular-L" transform="matrix(1 0 0 1 1381.56 1556)">
   <path d="M 100.635 -15.5273 L 100.635 -85.2051 C 100.635 -89.0625 97.9004 -92.2363 93.8965 -92.2363 C 91.1133 -92.2363 89.209 -90.8691 86.2793 -88.2812 L 55.8105 -60.9863 L 61.8164 -54.9316 L 89.7949 -80.3711 C 90.1855 -80.7129 90.5762 -81.0059 91.0156 -81.0059 C 91.6016 -81.0059 91.9922 -80.6152 91.9922 -80.0293 L 91.9922 -24.1699 Z M 119.287 26.2207 C 120.947 27.8809 123.584 27.8809 125.195 26.2207 C 126.807 24.5605 126.807 21.9727 125.195 20.3613 L 19.2383 -85.5469 C 17.627 -87.1582 14.9414 -87.207 13.2812 -85.5469 C 11.7188 -83.9844 11.7188 -81.25 13.2812 -79.6875 Z M 35.2539 -9.42383 L 54.3945 -9.42383 C 55.127 -9.42383 55.7129 -9.22852 56.2012 -8.74023 L 86.2793 18.1152 C 88.9648 20.5566 91.2109 21.7773 93.9941 21.7773 C 96.3867 21.7773 98.4375 20.6055 99.707 18.3105 L 92.9688 11.9141 L 60.791 -16.1133 C 59.375 -17.3828 58.4961 -17.627 56.6895 -17.627 L 35.5957 -17.627 C 32.8613 -17.627 31.6895 -18.7988 31.6895 -21.4844 L 31.6895 -49.3164 L 25.2441 -56.6406 C 23.6816 -54.1504 23.0469 -51.2207 23.0469 -47.6074 L 23.0469 -22.1191 C 23.0469 -13.5254 27.0508 -9.42383 35.2539 -9.42383 Z"/>
  </g>
  <g id="Light-L" transform="matrix(1 0 0 1 1087.44 1556)">
   <path d="M 97.2656 -13.3301 L 97.2656 -85.2051 C 97.2656 -88.5254 95.0684 -91.2109 91.6016 -91.2109 C 89.209 -91.2109 87.4512 -89.9902 85.1562 -87.9395 L 52.8809 -58.7402 L 57.5195 -54.0527 L 88.1348 -82.0801 C 88.5742 -82.4707 89.0137 -82.8125 89.5996 -82.8125 C 90.2344 -82.8125 90.625 -82.4219 90.625 -81.7871 L 90.625 -19.9707 Z M 115.43 25.1953 C 116.699 26.4648 118.75 26.4648 119.971 25.1953 C 121.289 23.9258 121.24 21.9238 119.971 20.6543 L 16.6992 -82.6172 C 15.4785 -83.7891 13.4277 -83.8867 12.1094 -82.6172 C 10.8887 -81.3477 10.8887 -79.248 12.1094 -78.0273 Z M 32.5684 -10.5957 L 52.2949 -10.5957 C 53.1738 -10.5957 53.8086 -10.3516 54.4434 -9.76562 L 85.1562 17.627 C 87.3047 19.5801 89.2578 20.7031 91.6504 20.7031 C 93.4082 20.7031 95.0195 19.8242 96.0449 18.3105 L 90.3809 12.9883 L 58.1543 -15.332 C 56.6406 -16.6504 55.6152 -16.8945 53.7109 -16.8945 L 32.7637 -16.8945 C 29.7363 -16.8945 28.5156 -18.1152 28.5156 -21.1426 L 28.5156 -49.3652 L 23.584 -55.7129 C 22.3145 -53.2227 21.9238 -50.7324 21.9238 -47.8516 L 21.9238 -21.5332 C 21.9238 -14.1113 25.3906 -10.5957 32.5684 -10.5957 Z"/>
  </g>
  <g id="Thin-L" transform="matrix(1 0 0 1 794.166 1556)">
   <path d="M 92.7734 -10.4492 L 92.7734 -85.1562 C 92.7734 -87.7441 91.3086 -89.8438 88.5254 -89.8438 C 86.6211 -89.8438 85.1562 -88.8184 83.6914 -87.5 L 49.0234 -55.8105 L 51.7578 -52.9297 L 85.9863 -84.2773 C 86.5234 -84.7656 87.0117 -85.2051 87.6953 -85.2051 C 88.3789 -85.2051 88.8672 -84.7656 88.8672 -84.0332 L 88.8672 -14.4043 Z M 110.303 23.877 C 111.084 24.6582 112.354 24.6582 113.135 23.877 C 113.965 23.0469 113.916 21.8262 113.135 21.0938 L 13.3301 -78.7109 C 12.6465 -79.3945 11.377 -79.541 10.5469 -78.7109 C 9.76562 -77.9297 9.76562 -76.6602 10.5469 -75.8789 Z M 29.0039 -12.1094 L 49.5605 -12.1094 C 50.6348 -12.1094 51.3184 -11.8164 52.0996 -11.1328 L 83.6914 16.9922 C 85.1074 18.3105 86.6699 19.2871 88.5742 19.2871 C 89.502 19.2871 90.5273 18.8477 91.2109 18.3105 L 86.8652 14.4043 L 54.6387 -14.2578 C 53.0762 -15.6738 51.8066 -15.9668 49.7559 -15.9668 L 29.0527 -15.9668 C 25.6348 -15.9668 24.3652 -17.2363 24.3652 -20.6543 L 24.3652 -49.4141 L 21.3867 -54.4434 C 20.5078 -51.9531 20.4102 -50.0977 20.4102 -48.1445 L 20.4102 -20.752 C 20.4102 -14.8926 23.1934 -12.1094 29.0039 -12.1094 Z"/>
  </g>
  <g id="Ultralight-L" transform="matrix(1 0 0 1 499.189 1556)">
   <path d="M 90.4785 -8.98438 L 90.4785 -85.1074 C 90.4785 -87.3535 89.4043 -89.1113 86.9629 -89.1113 C 85.3516 -89.1113 83.9355 -88.2324 82.959 -87.2559 L 47.0703 -54.3457 L 48.8281 -52.3438 L 84.8633 -85.4492 C 85.4492 -85.9375 85.9375 -86.4258 86.7188 -86.4258 C 87.4512 -86.4258 87.9395 -85.9375 87.9395 -85.2051 L 87.9395 -11.5234 Z M 107.715 23.1934 C 108.252 23.7305 109.082 23.7305 109.619 23.1934 C 110.205 22.5586 110.107 21.8262 109.619 21.2891 L 11.6211 -76.6602 C 11.1816 -77.0996 10.3516 -77.2949 9.76562 -76.6602 C 9.22852 -76.1719 9.22852 -75.293 9.76562 -74.8047 Z M 27.1973 -12.8906 L 48.1445 -12.8906 C 49.3164 -12.8906 50.0488 -12.5488 50.8789 -11.8164 L 82.959 16.6992 C 83.9844 17.6758 85.3516 18.6035 86.9629 18.6035 C 87.5 18.6035 88.2324 18.3594 88.7207 18.3105 L 85.1074 15.0879 L 52.832 -13.6719 C 51.2207 -15.1855 49.9023 -15.4785 47.7539 -15.4785 L 27.1484 -15.4785 C 23.4863 -15.4785 22.2168 -16.7969 22.2168 -20.459 L 22.2168 -49.4141 L 20.3125 -53.7598 C 19.5801 -51.2695 19.6777 -49.7559 19.6777 -48.291 L 19.6777 -20.3613 C 19.6777 -15.2832 22.0703 -12.8906 27.1973 -12.8906 Z"/>
  </g>
  <g id="Black-M" transform="matrix(1 0 0 1 2871.95 1126)">
   <path d="M 107.812 14.2578 C 109.57 15.918 112.451 15.9668 114.111 14.2578 C 115.82 12.5 115.869 9.66797 114.111 7.95898 L 19.7266 -86.377 C 17.9688 -88.1348 15.1367 -88.1348 13.3789 -86.377 C 11.6699 -84.7168 11.6699 -81.7871 13.3789 -80.0781 Z M 91.2598 -25.5371 L 91.3086 -73.1445 C 91.3086 -79.1504 86.6699 -83.8379 80.6152 -83.8379 C 77.0508 -83.8379 74.0234 -82.4707 70.2637 -79.0527 L 53.0762 -63.7695 L 64.4531 -52.2949 L 71.7285 -58.9844 C 71.9238 -59.1797 72.168 -59.2285 72.4121 -59.2285 C 72.8516 -59.2285 73.2422 -58.9355 73.2422 -58.3496 L 73.2422 -43.5547 Z M 36.6211 -8.78906 L 50.3418 -8.78906 C 50.6348 -8.78906 50.7812 -8.78906 51.0254 -8.54492 L 70.3613 8.64258 C 73.9746 11.9141 76.8066 13.4277 80.6152 13.4277 C 85.0586 13.4277 88.6719 10.9863 90.332 7.32422 L 69.9707 -12.9883 L 58.0566 -24.0234 C 56.8848 -25.1465 55.7617 -25.5371 54.0527 -25.5371 L 40.0391 -25.5371 C 39.3555 -25.5371 38.8184 -26.123 38.8184 -26.7578 L 38.8184 -43.9941 L 25.1953 -57.666 C 22.3145 -54.834 20.8008 -50.6348 20.8008 -45.166 L 20.8008 -25.1953 C 20.8008 -14.6973 26.4648 -8.78906 36.6211 -8.78906 Z"/>
  </g>
  <g id="Heavy-M" transform="matrix(1 0 0 1 2576.9 1126)">
   <path d="M 104.688 13.9648 C 106.396 15.5762 109.131 15.625 110.791 13.9648 C 112.402 12.2559 112.451 9.57031 110.791 7.86133 L 18.9453 -83.8867 C 17.2363 -85.5957 14.502 -85.5957 12.793 -83.8867 C 11.1816 -82.2754 11.1816 -79.4434 12.793 -77.832 Z M 88.5742 -24.5117 L 88.623 -73.3398 C 88.623 -78.7109 84.5215 -82.9102 79.1016 -82.9102 C 75.7812 -82.9102 73.1445 -81.5918 69.6289 -78.4668 L 51.123 -62.0117 L 61.1328 -52.002 L 71.4355 -61.4258 C 71.6309 -61.6211 71.9238 -61.6699 72.168 -61.6699 C 72.6074 -61.6699 72.9492 -61.377 72.9492 -60.8398 L 72.9492 -40.1367 Z M 34.7656 -10.1562 L 48.7305 -10.1562 C 49.0234 -10.1562 49.2676 -10.1074 49.5117 -9.86328 L 69.6777 8.10547 C 72.998 11.1328 75.6348 12.5 79.1016 12.5 C 83.0078 12.5 86.2305 10.3516 87.7441 7.08008 L 70.8496 -9.76562 L 55.8594 -23.291 C 54.6875 -24.3652 53.6621 -24.707 52.0508 -24.707 L 37.4512 -24.707 C 36.5234 -24.707 35.8887 -25.3418 35.8887 -26.3184 L 35.8887 -44.4824 L 24.0723 -56.4453 C 21.5332 -53.8086 20.2637 -50 20.2637 -45.0684 L 20.2637 -25.2441 C 20.2637 -15.4785 25.3906 -10.1562 34.7656 -10.1562 Z"/>
  </g>
  <g id="Bold-M" transform="matrix(1 0 0 1 2282.07 1126)">
   <path d="M 101.221 13.623 C 102.832 15.1855 105.469 15.2344 107.031 13.623 C 108.594 12.0117 108.643 9.42383 107.031 7.8125 L 18.0176 -81.1523 C 16.4551 -82.7637 13.7695 -82.7637 12.1582 -81.1523 C 10.6445 -79.5898 10.6445 -76.9043 12.1582 -75.3418 Z M 85.5957 -23.3887 L 85.6445 -73.584 C 85.6445 -78.2227 82.0801 -81.9336 77.3438 -81.9336 C 74.3652 -81.9336 72.0703 -80.6641 68.8965 -77.7832 L 48.9746 -60.1074 L 57.4219 -51.6113 L 71.1426 -64.1113 C 71.3379 -64.3555 71.6309 -64.4531 71.875 -64.4531 C 72.3145 -64.4531 72.6562 -64.1602 72.6562 -63.6719 L 72.6562 -36.3281 Z M 32.7148 -11.6699 L 46.875 -11.6699 C 47.2168 -11.6699 47.5098 -11.6211 47.8027 -11.3281 L 68.9453 7.51953 C 71.9238 10.2051 74.3164 11.5234 77.3926 11.5234 C 80.7129 11.5234 83.4473 9.7168 84.8145 6.78711 L 71.7773 -6.15234 L 53.3691 -22.4609 C 52.2461 -23.4863 51.3672 -23.7793 49.8535 -23.7793 L 34.6191 -23.7793 C 33.3008 -23.7793 32.5684 -24.4629 32.5684 -25.7812 L 32.5684 -45.0684 L 22.8516 -55.0293 C 20.7031 -52.6367 19.6289 -49.2676 19.6289 -44.9707 L 19.6289 -25.293 C 19.6289 -16.3574 24.1699 -11.6699 32.7148 -11.6699 Z"/>
  </g>
  <g id="Semibold-M" transform="matrix(1 0 0 1 1986.63 1126)">
   <path d="M 83.5449 -22.5586 L 83.5449 -73.7305 C 83.5449 -77.8809 80.4199 -81.2012 76.1719 -81.2012 C 73.3887 -81.2012 71.3867 -79.9805 68.3594 -77.3438 L 47.5098 -58.7891 L 54.834 -51.3672 L 70.8984 -66.0156 C 71.1426 -66.2109 71.3867 -66.3574 71.6797 -66.3574 C 72.1191 -66.3574 72.4121 -66.0645 72.4121 -65.625 L 72.4121 -33.6914 Z M 98.8281 13.3789 C 100.391 14.9414 102.979 14.9414 104.443 13.3789 C 106.006 11.8164 106.006 9.32617 104.443 7.76367 L 17.4316 -79.248 C 15.8691 -80.8105 13.3301 -80.8105 11.7188 -79.248 C 10.2539 -77.7344 10.2539 -75.0977 11.7188 -73.6328 Z M 31.2988 -12.7441 L 45.5566 -12.7441 C 45.9961 -12.7441 46.3379 -12.6465 46.6309 -12.3535 L 68.4082 7.12891 C 71.1914 9.61914 73.3887 10.791 76.2207 10.791 C 79.1016 10.791 81.543 9.22852 82.8125 6.5918 L 72.4121 -3.66211 L 51.6113 -21.875 C 50.5371 -22.9004 49.7559 -23.0957 48.291 -23.0957 L 32.6172 -23.0957 C 31.1035 -23.0957 30.3223 -23.877 30.3223 -25.3906 L 30.3223 -45.459 L 21.9727 -54.0527 C 20.1172 -51.8555 19.2383 -48.7793 19.2383 -44.873 L 19.2383 -25.3418 C 19.2383 -16.9922 23.3398 -12.7441 31.2988 -12.7441 Z"/>
  </g>
  <g id="Medium-M" transform="matrix(1 0 0 1 1690.89 1126)">
   <path d="M 81.9824 -21.9727 L 81.9824 -73.8281 C 81.9824 -77.6367 79.1504 -80.6641 75.293 -80.6641 C 72.6562 -80.6641 70.8496 -79.4922 68.0176 -77.002 L 46.3867 -57.7637 L 52.9297 -51.2207 L 70.752 -67.4316 C 70.9961 -67.627 71.2402 -67.8223 71.5332 -67.8223 C 71.9727 -67.8223 72.2656 -67.5293 72.2656 -67.0898 L 72.2656 -31.6895 Z M 97.0215 13.2324 C 98.5352 14.6973 101.025 14.7461 102.539 13.2324 C 104.004 11.6699 104.053 9.22852 102.539 7.71484 L 16.9434 -77.7832 C 15.4297 -79.2969 12.9395 -79.3457 11.4258 -77.7832 C 9.91211 -76.3184 9.91211 -73.7793 11.4258 -72.3145 Z M 30.2246 -13.5742 L 44.6289 -13.5742 C 45.0684 -13.5742 45.4102 -13.4277 45.752 -13.1348 L 68.0176 6.78711 C 70.6543 9.13086 72.7051 10.2539 75.3418 10.2539 C 77.9297 10.2539 80.127 8.88672 81.2988 6.44531 L 72.9004 -1.75781 L 50.293 -21.4355 C 49.2188 -22.4121 48.5352 -22.6074 47.1191 -22.6074 L 31.1035 -22.6074 C 29.4434 -22.6074 28.6133 -23.4375 28.6133 -25.1465 L 28.6133 -45.752 L 21.3379 -53.3203 C 19.6777 -51.2207 18.8965 -48.3887 18.8965 -44.7754 L 18.8965 -25.3906 C 18.8965 -17.4316 22.7051 -13.5742 30.2246 -13.5742 Z"/>
  </g>
  <g id="Regular-M" transform="matrix(1 0 0 1 1395.45 1126)">
   <path d="M 79.9316 -21.1914 L 79.9316 -74.0234 C 79.9316 -77.2949 77.4902 -79.9805 74.0723 -79.9805 C 71.6797 -79.9805 70.1172 -78.8574 67.4805 -76.5137 L 44.9219 -56.4453 L 50.3906 -50.9766 L 70.5078 -69.2871 C 70.752 -69.4824 71.0449 -69.6777 71.3867 -69.6777 C 71.7773 -69.6777 72.0703 -69.3848 72.0703 -68.9941 L 72.0703 -29.0527 Z M 94.6289 12.9883 C 96.1426 14.4531 98.5352 14.4531 99.9512 12.9883 C 101.416 11.4746 101.465 9.13086 99.9512 7.66602 L 16.3574 -75.9277 C 14.8926 -77.3926 12.4512 -77.3926 10.9863 -75.9277 C 9.57031 -74.5117 9.57031 -72.0215 10.9863 -70.6055 Z M 28.8086 -14.5996 L 43.3594 -14.5996 C 43.8477 -14.5996 44.2383 -14.4531 44.5801 -14.1113 L 67.4805 6.39648 C 69.873 8.54492 71.7773 9.57031 74.1699 9.57031 C 76.3672 9.57031 78.2227 8.44727 79.3457 6.25 L 73.5352 0.732422 L 48.6328 -20.8984 C 47.5586 -21.8262 46.9727 -21.9727 45.6055 -21.9727 L 29.1504 -21.9727 C 27.2461 -21.9727 26.3672 -22.8516 26.3672 -24.8047 L 26.3672 -46.1426 L 20.5078 -52.3926 C 19.1406 -50.4395 18.5059 -47.9004 18.5059 -44.7266 L 18.5059 -25.4395 C 18.5059 -18.0664 21.9238 -14.5996 28.8086 -14.5996 Z"/>
  </g>
  <g id="Light-M" transform="matrix(1 0 0 1 1101.06 1126)">
   <path d="M 76.9043 -19.2383 L 76.9043 -73.9746 C 76.9043 -76.7578 74.9512 -79.0527 72.0215 -79.0527 C 69.9707 -79.0527 68.5547 -78.0762 66.5039 -76.2207 L 42.2852 -54.4434 L 46.4844 -50.1953 L 69.043 -70.8008 C 69.3848 -71.0449 69.6777 -71.2891 70.0684 -71.2891 C 70.5566 -71.2891 70.8496 -70.9961 70.8496 -70.5078 L 70.8496 -25.293 Z M 91.1621 12.0605 C 92.334 13.2324 94.1895 13.2324 95.3125 12.0605 C 96.4355 10.8887 96.4355 9.08203 95.3125 7.95898 L 14.0625 -73.2422 C 12.9395 -74.3652 11.084 -74.4141 9.91211 -73.2422 C 8.78906 -72.168 8.78906 -70.2637 9.91211 -69.1406 Z M 26.416 -15.625 L 41.4551 -15.625 C 42.0898 -15.625 42.5293 -15.4297 42.9688 -15.0391 L 66.5039 5.95703 C 68.4082 7.66602 70.0195 8.59375 72.0703 8.59375 C 73.7305 8.59375 75.1953 7.76367 76.0742 6.25 L 71.1914 1.66016 L 46.2402 -20.166 C 45.1172 -21.1426 44.3848 -21.3379 42.9688 -21.3379 L 26.6602 -21.3379 C 24.4629 -21.3379 23.5352 -22.2656 23.5352 -24.4629 L 23.5352 -46.1426 L 18.9941 -51.5137 C 17.9199 -49.6094 17.4805 -47.4609 17.4805 -44.9219 L 17.4805 -24.9023 C 17.4805 -18.6035 20.4102 -15.625 26.416 -15.625 Z"/>
  </g>
  <g id="Thin-M" transform="matrix(1 0 0 1 807.423 1126)">
   <path d="M 72.8516 -16.6504 L 72.8516 -73.9258 C 72.8516 -76.0742 71.582 -77.832 69.2871 -77.832 C 67.6758 -77.832 66.5039 -77.002 65.1855 -75.8301 L 38.8184 -51.8066 L 41.3574 -49.2188 L 67.0898 -72.7539 C 67.4805 -73.0957 67.8711 -73.4375 68.3594 -73.4375 C 68.8965 -73.4375 69.2383 -73.0957 69.2383 -72.5586 L 69.2383 -20.2637 Z M 86.6211 10.8887 C 87.3047 11.5723 88.4766 11.5723 89.1602 10.8887 C 89.8926 10.1074 89.8438 9.0332 89.1602 8.30078 L 11.084 -69.7754 C 10.4004 -70.4102 9.27734 -70.5078 8.49609 -69.7754 C 7.8125 -69.043 7.8125 -67.9199 8.49609 -67.1875 Z M 23.2422 -16.9922 L 39.0137 -16.9922 C 39.7949 -16.9922 40.332 -16.748 40.8691 -16.2598 L 65.1855 5.37109 C 66.4551 6.54297 67.7246 7.32422 69.2871 7.32422 C 70.2148 7.32422 71.1426 6.88477 71.7285 6.25 L 68.0664 2.92969 L 43.1152 -19.1895 C 41.8945 -20.2637 40.9668 -20.5078 39.4531 -20.5078 L 23.3398 -20.5078 C 20.752 -20.5078 19.7754 -21.4844 19.7754 -24.0723 L 19.7754 -46.1914 L 17.041 -50.3906 C 16.2598 -48.4375 16.1621 -46.875 16.1621 -45.166 L 16.1621 -24.1699 C 16.1621 -19.2871 18.457 -16.9922 23.2422 -16.9922 Z"/>
  </g>
  <g id="Ultralight-M" transform="matrix(1 0 0 1 512.275 1126)">
   <path d="M 70.8008 -15.332 L 70.8008 -73.877 C 70.8008 -75.7324 69.873 -77.1973 67.8711 -77.1973 C 66.5527 -77.1973 65.4297 -76.4648 64.502 -75.6348 L 37.0605 -50.4883 L 38.7207 -48.6816 L 66.1133 -73.7793 C 66.5527 -74.1699 66.9434 -74.5605 67.4805 -74.5605 C 68.0664 -74.5605 68.4082 -74.1699 68.4082 -73.6328 L 68.4082 -17.7246 Z M 84.2773 10.2539 C 84.7168 10.7422 85.498 10.7422 85.9863 10.2539 C 86.5234 9.7168 86.4746 8.98438 85.9863 8.49609 L 9.52148 -67.9688 C 9.13086 -68.3594 8.34961 -68.5059 7.8125 -67.9688 C 7.32422 -67.4805 7.32422 -66.6992 7.8125 -66.2109 Z M 21.6309 -17.6758 L 37.7441 -17.6758 C 38.623 -17.6758 39.1602 -17.4316 39.7949 -16.8457 L 64.502 5.07812 C 65.4297 5.95703 66.5039 6.68945 67.8711 6.68945 C 68.4082 6.68945 69.0918 6.44531 69.4824 6.25 L 66.5039 3.56445 L 41.5039 -18.7012 C 40.2344 -19.8242 39.2578 -20.0684 37.5977 -20.0684 L 21.6309 -20.0684 C 18.8477 -20.0684 17.8711 -21.0938 17.8711 -23.8281 L 17.8711 -46.2402 L 16.0645 -49.8047 C 15.4297 -47.8516 15.4785 -46.582 15.4785 -45.3125 L 15.4785 -23.8281 C 15.4785 -19.6289 17.4316 -17.6758 21.6309 -17.6758 Z"/>
  </g>
  <g id="Black-S" transform="matrix(1 0 0 1 2885.35 696)">
   <path d="M 84.2773 3.51562 C 85.6445 4.83398 87.8906 4.88281 89.209 3.51562 C 90.5273 2.14844 90.5762 -0.0488281 89.209 -1.41602 L 15.4297 -75.1465 C 14.0625 -76.5137 11.8164 -76.5137 10.4492 -75.1465 C 9.13086 -73.8281 9.13086 -71.5332 10.4492 -70.2148 Z M 71.3379 -27.5879 L 71.3867 -64.9414 C 71.3867 -69.6289 67.7734 -73.2422 63.0859 -73.2422 C 60.3027 -73.2422 57.959 -72.168 55.0293 -69.5312 L 41.4551 -57.4707 L 50.293 -48.584 L 56.2012 -54.0039 C 56.3477 -54.1504 56.543 -54.1992 56.7383 -54.1992 C 57.0801 -54.1992 57.373 -53.9551 57.373 -53.5156 L 57.373 -41.5527 Z M 28.5645 -14.5996 L 39.3555 -14.5996 C 39.5508 -14.5996 39.6973 -14.5996 39.8926 -14.4043 L 55.0781 -0.878906 C 57.9102 1.66016 60.1074 2.83203 63.0859 2.83203 C 66.5039 2.83203 69.3359 0.927734 70.6055 -1.9043 L 54.9316 -17.5781 L 45.3613 -26.416 C 44.4336 -27.2949 43.5547 -27.5879 42.2363 -27.5879 L 31.2012 -27.5879 C 30.6641 -27.5879 30.2246 -28.0273 30.2246 -28.5645 L 30.2246 -42.1387 L 19.6777 -52.7344 C 17.4316 -50.5371 16.2598 -47.2656 16.2598 -43.0176 L 16.2598 -27.3926 C 16.2598 -19.1895 20.6543 -14.5996 28.5645 -14.5996 Z"/>
  </g>
  <g id="Heavy-S" transform="matrix(1 0 0 1 2589.67 696)">
   <path d="M 82.2754 3.36914 C 83.6426 4.6875 85.8887 4.73633 87.1582 3.36914 C 88.4766 2.05078 88.5254 -0.146484 87.1582 -1.51367 L 15.0879 -73.5352 C 13.7207 -74.9023 11.4746 -74.9023 10.1562 -73.5352 C 8.83789 -72.2656 8.83789 -69.9707 10.1562 -68.6523 Z M 69.6289 -27.002 L 69.6777 -65.0879 C 69.6777 -69.3359 66.4062 -72.6562 62.1582 -72.6562 C 59.5215 -72.6562 57.4219 -71.6309 54.6387 -69.0918 L 40.2832 -56.3965 L 48.1934 -48.4375 L 56.1523 -55.7129 C 56.2988 -55.8594 56.4941 -55.9082 56.6895 -55.9082 C 57.0312 -55.9082 57.2754 -55.6641 57.2754 -55.2734 L 57.2754 -39.3555 Z M 27.4414 -15.5273 L 38.2812 -15.5273 C 38.5254 -15.5273 38.7207 -15.5273 38.916 -15.332 L 54.6875 -1.2207 C 57.3242 1.12305 59.375 2.24609 62.1582 2.24609 C 65.2344 2.24609 67.7734 0.537109 68.9941 -2.09961 L 55.8594 -15.1855 L 43.8965 -25.9277 C 43.0176 -26.7578 42.2363 -27.002 41.0156 -27.002 L 29.541 -27.002 C 28.8086 -27.002 28.2715 -27.4902 28.2715 -28.2227 L 28.2715 -42.5293 L 18.9941 -51.8555 C 16.9922 -49.8535 15.9668 -46.8262 15.9668 -42.9199 L 15.9668 -27.4902 C 15.9668 -19.7266 20.0195 -15.5273 27.4414 -15.5273 Z"/>
  </g>
  <g id="Bold-S" transform="matrix(1 0 0 1 2294.08 696)">
   <path d="M 80.0781 3.27148 C 81.3965 4.58984 83.5938 4.58984 84.9121 3.27148 C 86.1816 1.9043 86.2305 -0.244141 84.9121 -1.61133 L 14.6484 -71.7773 C 13.3301 -73.0957 11.1328 -73.0957 9.76562 -71.7773 C 8.49609 -70.459 8.49609 -68.2129 9.76562 -66.9434 Z M 67.7246 -26.3672 L 67.7246 -65.2832 C 67.7246 -69.043 64.8438 -72.0215 61.084 -72.0215 C 58.6426 -72.0215 56.8359 -70.9961 54.1992 -68.6523 L 38.9648 -55.127 L 45.8008 -48.2422 L 56.1035 -57.5684 C 56.25 -57.7148 56.4453 -57.8125 56.6406 -57.8125 C 56.9824 -57.8125 57.2266 -57.6172 57.2266 -57.2266 L 57.2266 -36.9141 Z M 26.1719 -16.6016 L 37.1094 -16.6016 C 37.3535 -16.6016 37.5977 -16.5527 37.793 -16.3086 L 54.1992 -1.66016 C 56.6895 0.585938 58.5938 1.5625 61.1328 1.5625 C 63.8184 1.5625 66.0645 0.0976562 67.1875 -2.34375 L 56.8359 -12.5488 L 42.2852 -25.3906 C 41.4551 -26.1719 40.7715 -26.3672 39.6484 -26.3672 L 27.6367 -26.3672 C 26.709 -26.3672 26.123 -26.9531 26.123 -27.8809 L 26.123 -42.9688 L 18.2129 -50.9277 C 16.5039 -49.0723 15.625 -46.3379 15.625 -42.7734 L 15.625 -27.5879 C 15.625 -20.3613 19.2871 -16.6016 26.1719 -16.6016 Z"/>
  </g>
  <g id="Semibold-S" transform="matrix(1 0 0 1 1998.17 696)">
   <path d="M 66.4062 -25.9277 L 66.4062 -65.3809 C 66.4062 -68.7988 63.8184 -71.5332 60.3516 -71.5332 C 58.0566 -71.5332 56.4453 -70.5566 53.9062 -68.3105 L 38.0371 -54.2969 L 44.1895 -48.1445 L 56.0547 -58.8867 C 56.2012 -59.0332 56.3965 -59.1309 56.5918 -59.1309 C 56.9336 -59.1309 57.1289 -58.9355 57.1289 -58.5938 L 57.1289 -35.2051 Z M 78.5156 3.17383 C 79.834 4.49219 82.0312 4.49219 83.3008 3.17383 C 84.6191 1.80664 84.668 -0.341797 83.3008 -1.66016 L 14.4043 -70.5566 C 13.0371 -71.875 10.8887 -71.875 9.52148 -70.5566 C 8.25195 -69.2383 8.25195 -66.9922 9.52148 -65.7227 Z M 25.293 -17.2852 L 36.2793 -17.2852 C 36.5723 -17.2852 36.8164 -17.2363 37.0117 -17.041 L 53.9062 -1.9043 C 56.25 0.146484 58.0566 1.12305 60.4004 1.12305 C 62.8418 1.12305 64.8438 -0.195312 65.918 -2.49023 L 57.5684 -10.7422 L 41.1621 -25 C 40.332 -25.7812 39.7949 -25.9277 38.6719 -25.9277 L 26.3184 -25.9277 C 25.2441 -25.9277 24.6094 -26.5137 24.6094 -27.6367 L 24.6094 -43.2617 L 17.6758 -50.2441 C 16.1621 -48.5352 15.3809 -45.9961 15.3809 -42.7246 L 15.3809 -27.6855 C 15.3809 -20.8008 18.75 -17.2852 25.293 -17.2852 Z"/>
  </g>
  <g id="Medium-S" transform="matrix(1 0 0 1 1702.05 696)">
   <path d="M 65.3809 -25.6348 L 65.3809 -65.4785 C 65.3809 -68.6523 62.9883 -71.1914 59.7656 -71.1914 C 57.6172 -71.1914 56.1035 -70.2148 53.6621 -68.0664 L 37.3535 -53.6621 L 42.9688 -48.0469 L 56.0059 -59.8633 C 56.1523 -60.0098 56.3477 -60.1074 56.5918 -60.1074 C 56.8848 -60.1074 57.0801 -59.9121 57.0801 -59.6191 L 57.0801 -33.8867 Z M 77.3438 3.07617 C 78.6621 4.39453 80.8594 4.39453 82.1289 3.07617 C 83.3984 1.75781 83.4473 -0.390625 82.1289 -1.70898 L 14.1602 -69.5801 C 12.8418 -70.9473 10.6934 -70.9473 9.375 -69.5801 C 8.05664 -68.3105 8.05664 -66.1133 9.375 -64.8438 Z M 24.6094 -17.8711 L 35.6934 -17.8711 C 35.9863 -17.8711 36.2305 -17.7734 36.4258 -17.5781 L 53.6621 -2.14844 C 55.9082 -0.146484 57.666 0.78125 59.8633 0.78125 C 62.0605 0.78125 63.9648 -0.390625 64.9902 -2.58789 L 58.0566 -9.32617 L 40.332 -24.707 C 39.502 -25.4395 39.0137 -25.5859 37.9883 -25.5859 L 25.3418 -25.5859 C 24.1211 -25.5859 23.4863 -26.2207 23.4863 -27.4414 L 23.4863 -43.457 L 17.2852 -49.7559 C 15.918 -48.0957 15.2344 -45.7031 15.2344 -42.627 L 15.2344 -27.7344 C 15.2344 -21.0938 18.3594 -17.8711 24.6094 -17.8711 Z"/>
  </g>
  <g id="Regular-S" transform="matrix(1 0 0 1 1406.12 696)">
   <path d="M 64.0625 -25.1953 L 64.0625 -65.625 C 64.0625 -68.4082 61.9629 -70.752 59.0332 -70.752 C 57.0312 -70.752 55.7129 -69.7754 53.3691 -67.7246 L 36.4746 -52.832 L 41.3574 -47.9492 L 55.957 -61.1816 C 56.1523 -61.3281 56.3477 -61.4258 56.543 -61.4258 C 56.8359 -61.4258 57.0312 -61.2305 57.0312 -60.9375 L 57.0312 -32.2266 Z M 75.8301 2.97852 C 77.1484 4.29688 79.2969 4.29688 80.5664 2.97852 C 81.8359 1.66016 81.8848 -0.439453 80.5664 -1.75781 L 13.916 -68.4082 C 12.5977 -69.6777 10.4492 -69.7266 9.13086 -68.4082 C 7.86133 -67.1387 7.86133 -64.8926 9.13086 -63.623 Z M 23.7305 -18.5547 L 34.8633 -18.5547 C 35.1562 -18.5547 35.498 -18.457 35.6934 -18.2617 L 53.3691 -2.39258 C 55.4688 -0.537109 57.0801 0.341797 59.1309 0.341797 C 61.1328 0.341797 62.7441 -0.683594 63.7695 -2.73438 L 58.7891 -7.51953 L 39.209 -24.3652 C 38.4277 -25.0488 38.0371 -25.1465 37.0605 -25.1465 L 24.0723 -25.1465 C 22.7051 -25.1465 22.0215 -25.8301 22.0215 -27.1973 L 22.0215 -43.75 L 16.748 -49.0723 C 15.5762 -47.5586 14.9902 -45.4102 14.9902 -42.5781 L 14.9902 -27.7832 C 14.9902 -21.5332 17.8711 -18.5547 23.7305 -18.5547 Z"/>
  </g>
  <g id="Light-S" transform="matrix(1 0 0 1 1111.46 696)">
   <path d="M 61.377 -23.4375 L 61.377 -65.5762 C 61.377 -67.9688 59.7168 -69.9219 57.2266 -69.9219 C 55.4688 -69.9219 54.2969 -69.0918 52.4902 -67.4805 L 34.1309 -51.0742 L 37.8906 -47.2656 L 54.6875 -62.5 C 54.8828 -62.6953 55.127 -62.8906 55.3711 -62.8906 C 55.7617 -62.8906 55.957 -62.6465 55.957 -62.3047 L 55.957 -28.9062 Z M 72.7539 2.19727 C 73.7793 3.22266 75.4883 3.22266 76.4648 2.19727 C 77.4902 1.12305 77.4902 -0.488281 76.4648 -1.51367 L 11.9141 -66.0645 C 10.8887 -67.041 9.22852 -67.0898 8.1543 -66.0645 C 7.17773 -65.0391 7.17773 -63.3301 8.1543 -62.3535 Z M 21.6309 -19.4824 L 33.2031 -19.4824 C 33.6426 -19.4824 33.9844 -19.3359 34.2773 -19.043 L 52.4902 -2.7832 C 54.1504 -1.26953 55.5664 -0.488281 57.2754 -0.488281 C 58.7891 -0.488281 60.0586 -1.26953 60.8398 -2.73438 L 56.6895 -6.68945 L 37.1582 -23.6816 C 36.2793 -24.4629 35.7422 -24.6094 34.668 -24.6094 L 21.8262 -24.6094 C 20.2148 -24.6094 19.5312 -25.293 19.5312 -26.9043 L 19.5312 -43.7988 L 15.4785 -48.3398 C 14.502 -46.8262 14.0625 -44.9707 14.0625 -42.7246 L 14.0625 -27.3438 C 14.0625 -21.9727 16.5527 -19.4824 21.6309 -19.4824 Z"/>
  </g>
  <g id="Thin-S" transform="matrix(1 0 0 1 817.457 696)">
   <path d="M 57.8613 -21.1914 L 57.8613 -65.5762 C 57.8613 -67.3828 56.7383 -68.8477 54.7852 -68.8477 C 53.4668 -68.8477 52.4902 -68.1641 51.3184 -67.1387 L 31.1035 -48.7305 L 33.3984 -46.3867 L 52.9297 -64.2578 C 53.2227 -64.502 53.5156 -64.7461 53.9062 -64.7461 C 54.2969 -64.7461 54.541 -64.502 54.541 -64.1113 L 54.541 -24.4629 Z M 68.7012 1.12305 C 69.3359 1.75781 70.4102 1.75781 70.9961 1.12305 C 71.6797 0.439453 71.6309 -0.537109 70.9961 -1.17188 L 9.22852 -62.9395 C 8.64258 -63.5254 7.61719 -63.623 6.93359 -62.9395 C 6.29883 -62.3047 6.29883 -61.2793 6.93359 -60.6445 Z M 18.7988 -20.6543 L 31.0059 -20.6543 C 31.5918 -20.6543 32.0312 -20.5078 32.4219 -20.1172 L 51.3184 -3.27148 C 52.4414 -2.29492 53.5156 -1.61133 54.834 -1.61133 C 55.6641 -1.61133 56.4941 -2.05078 57.0312 -2.73438 L 53.9551 -5.56641 L 34.375 -22.8516 C 33.4473 -23.6816 32.7637 -23.877 31.543 -23.877 L 18.8965 -23.877 C 16.9434 -23.877 16.2109 -24.6094 16.2109 -26.5625 L 16.2109 -43.7988 L 13.7207 -47.3145 C 13.0859 -45.8008 12.8906 -44.4824 12.8906 -42.9688 L 12.8906 -26.709 C 12.8906 -22.6074 14.8438 -20.6543 18.7988 -20.6543 Z"/>
  </g>
  <g id="Ultralight-S" transform="matrix(1 0 0 1 522.138 696)">
   <path d="M 56.0547 -20.0195 L 56.0547 -65.5273 C 56.0547 -67.041 55.1758 -68.3105 53.5645 -68.3105 C 52.4414 -68.3105 51.5137 -67.6758 50.7324 -66.9434 L 29.4922 -47.5586 L 31.0547 -45.8984 L 52.0508 -65.1855 C 52.3926 -65.4785 52.6855 -65.7227 53.125 -65.7227 C 53.5645 -65.7227 53.8086 -65.4785 53.8086 -65.0391 L 53.8086 -22.2168 Z M 66.6504 0.585938 C 67.0898 1.02539 67.7734 1.02539 68.2129 0.585938 C 68.7012 0.0976562 68.6523 -0.585938 68.2129 -1.02539 L 7.86133 -61.3281 C 7.4707 -61.7188 6.78711 -61.8164 6.29883 -61.3281 C 5.85938 -60.9375 5.85938 -60.2051 6.29883 -59.7656 Z M 17.3828 -21.2891 L 29.8828 -21.2891 C 30.5664 -21.2891 31.0059 -21.0938 31.4453 -20.6543 L 50.7324 -3.56445 C 51.5137 -2.83203 52.4414 -2.19727 53.5645 -2.19727 C 54.0527 -2.19727 54.6875 -2.44141 55.0293 -2.73438 L 52.5391 -5.0293 L 32.959 -22.4121 C 31.9824 -23.291 31.2012 -23.4863 29.9805 -23.4863 L 17.3828 -23.4863 C 15.2832 -23.4863 14.502 -24.2676 14.502 -26.3672 L 14.502 -43.8477 L 12.8418 -46.7773 C 12.3047 -45.2637 12.3047 -44.1895 12.3047 -43.0664 L 12.3047 -26.3672 C 12.3047 -22.9492 13.916 -21.2891 17.3828 -21.2891 Z"/>
  </g>
 </g>
</svg>
